<svg xmlns="http://www.w3.org/2000/svg" xmlns:svg="http://www.w3.org/2000/svg" xmlns:xlink="http://www.w3.org/1999/xlink" id="svg2985" width="48" height="48" version="1.1"><defs id="defs2987"><linearGradient id="linearGradient4105"><stop id="stop4107" offset="0" stop-color="#dd4814" stop-opacity="1"/><stop id="stop4109" offset="1" stop-color="#dd4814" stop-opacity="0"/></linearGradient><linearGradient id="linearGradient4097"><stop id="stop4099" offset="0" stop-color="#777" stop-opacity="1"/><stop id="stop4101" offset="1" stop-color="#777" stop-opacity="0"/></linearGradient><linearGradient id="linearGradient4089"><stop id="stop4091" offset="0" stop-color="#777" stop-opacity="1"/><stop id="stop4093" offset="1" stop-color="#777" stop-opacity="0"/></linearGradient><linearGradient id="linearGradient3765"><stop id="stop3767" offset="0" stop-color="#dd4814" stop-opacity="1"/><stop id="stop3769" offset="1" stop-color="#e96638" stop-opacity="1"/></linearGradient><linearGradient id="linearGradient5575" x1="492.76" x2="492.76" y1="1003.491" y2="1010.464" gradientUnits="userSpaceOnUse" xlink:href="#linearGradient4241"/><linearGradient id="linearGradient4241"><stop id="stop4243" offset="0" stop-color="#fff" stop-opacity="1"/><stop id="stop4245" offset="1" stop-color="#fff" stop-opacity="0"/></linearGradient><linearGradient id="linearGradient3819" x1="492.784" x2="492.76" y1="1002.027" y2="1010.464" gradientUnits="userSpaceOnUse" xlink:href="#linearGradient4241"/><linearGradient id="linearGradient3809" x1="4" x2="9" y1="12" y2="27" gradientTransform="translate(-15.824971,20.484723)" gradientUnits="userSpaceOnUse" xlink:href="#linearGradient4241"/><linearGradient id="linearGradient3837" x1="8" x2="6" y1="53.776" y2="42" gradientTransform="translate(-15.824971,-7.5152767)" gradientUnits="userSpaceOnUse" xlink:href="#linearGradient4241"/><linearGradient id="linearGradient3898" x1="4" x2="9" y1="12" y2="27" gradientTransform="translate(-15.824971,20.484723)" gradientUnits="userSpaceOnUse" xlink:href="#linearGradient4241"/><linearGradient id="linearGradient3900" x1="8" x2="6" y1="53.776" y2="42" gradientTransform="translate(-15.824971,-7.5152767)" gradientUnits="userSpaceOnUse" xlink:href="#linearGradient4241"/><linearGradient id="linearGradient4160" x1="21.763" x2="24.204" y1="44.685" y2="37.525" gradientTransform="translate(2,2.6995817)" gradientUnits="userSpaceOnUse" xlink:href="#linearGradient4089"/><linearGradient id="linearGradient4163" x1="30.018" x2="15.596" y1="33.371" y2="38.409" gradientTransform="translate(2,2.6995817)" gradientUnits="userSpaceOnUse" xlink:href="#linearGradient4097"/><linearGradient id="linearGradient4166" x1="10.066" x2="21.052" y1="41.061" y2="49.811" gradientTransform="translate(2,2.6995817)" gradientUnits="userSpaceOnUse" xlink:href="#linearGradient4105"/><filter id="filter4182" width="1.247" height="1.079" x="-.123" y="-.04"><feGaussianBlur id="feGaussianBlur4184" stdDeviation=".605"/></filter><filter id="filter4192"><feGaussianBlur id="feGaussianBlur4194" stdDeviation=".678"/></filter><filter id="filter4198"><feGaussianBlur id="feGaussianBlur4200" stdDeviation=".636"/></filter><linearGradient id="linearGradient4202" x1="10.066" x2="21.052" y1="41.061" y2="49.811" gradientTransform="translate(2,2.6995817)" gradientUnits="userSpaceOnUse" xlink:href="#linearGradient4105"/><linearGradient id="linearGradient4204" x1="30.018" x2="15.596" y1="33.371" y2="38.409" gradientTransform="translate(2,2.6995817)" gradientUnits="userSpaceOnUse" xlink:href="#linearGradient4097"/><linearGradient id="linearGradient5575-2" x1="492.76" x2="492.76" y1="1003.491" y2="1010.464" gradientUnits="userSpaceOnUse" xlink:href="#linearGradient4241-7"/><linearGradient id="linearGradient4241-7"><stop id="stop4243-0" offset="0" stop-color="#fff" stop-opacity="1"/><stop id="stop4245-3" offset="1" stop-color="#fff" stop-opacity="0"/></linearGradient><linearGradient id="linearGradient3019" x1="492.76" x2="492.76" y1="1003.491" y2="1010.464" gradientUnits="userSpaceOnUse" xlink:href="#linearGradient4241-7"/><linearGradient id="linearGradient4237" x1="492.76" x2="492.76" y1="1003.491" y2="1010.464" gradientUnits="userSpaceOnUse" xlink:href="#linearGradient4241-7"/><linearGradient id="linearGradient4245" x1="492.76" x2="492.76" y1="1003.491" y2="1010.464" gradientUnits="userSpaceOnUse" xlink:href="#linearGradient4241-7"/><linearGradient id="linearGradient4315" x1="21.763" x2="24.204" y1="44.685" y2="37.525" gradientTransform="translate(2,2.6995817)" gradientUnits="userSpaceOnUse" xlink:href="#linearGradient4089"/><linearGradient id="linearGradient4317" x1="30.018" x2="15.596" y1="33.371" y2="38.409" gradientTransform="translate(2,2.6995817)" gradientUnits="userSpaceOnUse" xlink:href="#linearGradient4097"/><linearGradient id="linearGradient4319" x1="10.066" x2="21.052" y1="41.061" y2="49.811" gradientTransform="translate(2,2.6995817)" gradientUnits="userSpaceOnUse" xlink:href="#linearGradient4105"/><linearGradient id="linearGradient4321" x1="21.763" x2="24.204" y1="44.685" y2="37.525" gradientTransform="translate(2,2.6995817)" gradientUnits="userSpaceOnUse" xlink:href="#linearGradient4089"/><linearGradient id="linearGradient4323" x1="30.018" x2="15.596" y1="33.371" y2="38.409" gradientTransform="translate(2,2.6995817)" gradientUnits="userSpaceOnUse" xlink:href="#linearGradient4097"/><linearGradient id="linearGradient4325" x1="10.066" x2="21.052" y1="41.061" y2="49.811" gradientTransform="translate(2,2.6995817)" gradientUnits="userSpaceOnUse" xlink:href="#linearGradient4105"/><linearGradient id="linearGradient4327" x1="492.76" x2="492.76" y1="1003.491" y2="1010.464" gradientUnits="userSpaceOnUse" xlink:href="#linearGradient4241-7"/><linearGradient id="linearGradient4329" x1="492.76" x2="492.76" y1="1003.491" y2="1010.464" gradientUnits="userSpaceOnUse" xlink:href="#linearGradient4241-7"/><linearGradient id="linearGradient4331" x1="492.76" x2="492.76" y1="1003.491" y2="1010.464" gradientUnits="userSpaceOnUse" xlink:href="#linearGradient4241-7"/><linearGradient id="linearGradient4356" x1="10.066" x2="21.052" y1="41.061" y2="49.811" gradientTransform="translate(2,2.6995817)" gradientUnits="userSpaceOnUse" xlink:href="#linearGradient4105"/><linearGradient id="linearGradient4364" x1="30.018" x2="15.596" y1="33.371" y2="38.409" gradientTransform="translate(2,2.6995817)" gradientUnits="userSpaceOnUse" xlink:href="#linearGradient4097"/><linearGradient id="linearGradient4367" x1="21.763" x2="24.204" y1="44.685" y2="37.525" gradientTransform="translate(2,2.6995817)" gradientUnits="userSpaceOnUse" xlink:href="#linearGradient4089"/><linearGradient id="linearGradient4405" x1="10.066" x2="21.052" y1="41.061" y2="49.811" gradientTransform="translate(2,2.6995817)" gradientUnits="userSpaceOnUse" xlink:href="#linearGradient4105"/><linearGradient id="linearGradient4407" x1="23.026" x2="24.204" y1="43.854" y2="37.525" gradientTransform="translate(2,2.6995817)" gradientUnits="userSpaceOnUse" xlink:href="#linearGradient4089"/><linearGradient id="linearGradient4409" x1="30.018" x2="15.596" y1="33.371" y2="38.409" gradientTransform="translate(2,2.6995817)" gradientUnits="userSpaceOnUse" xlink:href="#linearGradient4097"/><linearGradient id="linearGradient3097" x1="12.163" x2="21.052" y1="39.026" y2="49.811" gradientTransform="matrix(0.8285189,0,0,0.8285189,4.9224759,7.6662765)" gradientUnits="userSpaceOnUse" xlink:href="#linearGradient4105"/><linearGradient id="linearGradient3105" x1="30.018" x2="15.596" y1="33.371" y2="38.409" gradientTransform="matrix(0.8285189,0,0,0.8285189,4.9224759,7.6662765)" gradientUnits="userSpaceOnUse" xlink:href="#linearGradient4097"/><linearGradient id="linearGradient3108" x1="21.763" x2="24.204" y1="44.685" y2="37.525" gradientTransform="matrix(0.8285189,0,0,0.8285189,4.9224759,7.6662765)" gradientUnits="userSpaceOnUse" xlink:href="#linearGradient4089"/><linearGradient id="linearGradient3118" x1="492.76" x2="492.76" y1="1003.491" y2="1010.464" gradientUnits="userSpaceOnUse" xlink:href="#linearGradient4241-7"/><linearGradient id="linearGradient3129" x1="492.76" x2="492.76" y1="1003.491" y2="1010.464" gradientUnits="userSpaceOnUse" xlink:href="#linearGradient4241-7"/><linearGradient id="linearGradient3138" x1="492.76" x2="492.76" y1="1003.491" y2="1010.464" gradientUnits="userSpaceOnUse" xlink:href="#linearGradient4241-7"/><filter id="filter3849"><feGaussianBlur id="feGaussianBlur3851" stdDeviation=".186"/></filter><filter id="filter3859"><feGaussianBlur id="feGaussianBlur3861" stdDeviation=".225"/></filter><linearGradient id="linearGradient3879" x1="492.76" x2="492.76" y1="1003.491" y2="1010.464" gradientUnits="userSpaceOnUse" xlink:href="#linearGradient4241-7"/><linearGradient id="linearGradient3886" x1="492.76" x2="492.76" y1="1003.491" y2="1010.464" gradientUnits="userSpaceOnUse" xlink:href="#linearGradient4241-7"/><filter id="filter3892"><feGaussianBlur id="feGaussianBlur3894" stdDeviation=".225"/></filter></defs><metadata id="metadata2990"/><g id="layer1" transform="translate(0,-16)"><path id="dp_path028" fill="none" stroke="url(#linearGradient3097)" stroke-dasharray="none" stroke-miterlimit="4" stroke-opacity="1" stroke-width="1.657" d="m 23.39088,36.91646 c 7.981022,-2.904855 15.084956,-3.517786 15.866995,-1.36915 0.782041,2.148637 -5.053874,6.245424 -13.034896,9.150278 -7.981022,2.904855 -15.084955,3.517787 -15.866995,1.369149 -0.7820396,-2.148636 5.053874,-6.245423 13.034896,-9.150277 z"/><path id="path4255" fill="#333" fill-opacity="1" stroke="none" d="m -4,17.5 c 0,1.380712 -1.790861,2.5 -4,2.5 -2.209139,0 -4,-1.119288 -4,-2.5 0,-1.380712 1.790861,-2.5 4,-2.5 2.209139,0 4,1.119288 4,2.5 z" opacity=".3" transform="matrix(1.375,0,0,2.2,44.381566,5.321205)"/><path id="dp_path031" fill="none" stroke="url(#linearGradient3108)" stroke-dasharray="none" stroke-miterlimit="4" stroke-opacity="1" stroke-width="1.657" d="M 22.14554,43.978673 C 15.639522,38.519125 11.556598,32.673511 13.026274,30.921955 c 1.469675,-1.751556 7.935809,1.253952 14.442123,6.713637 6.506156,5.459252 10.588942,11.305162 9.119188,13.056501 -1.469596,1.751773 -7.935593,-1.254031 -14.442045,-6.71342 z"/><path id="dp_path030" fill="none" stroke="url(#linearGradient3105)" stroke-dasharray="none" stroke-miterlimit="4" stroke-opacity=".941" stroke-width="1.657" d="m 20.72957,40.088325 c 1.474708,-8.36454 4.496151,-14.823244 6.747866,-14.426163 2.251714,0.39708 2.881503,7.499534 1.406932,15.863777 -1.475003,8.364402 -4.49615,14.823244 -6.747945,14.425947 -2.251636,-0.396864 -2.881718,-7.499455 -1.406853,-15.863561 z"/><path id="path4196" fill="none" stroke="url(#linearGradient4405)" stroke-dasharray="none" stroke-miterlimit="4" stroke-opacity="1" stroke-width="2" d="m 24.290866,38.003765 c 9.632879,-3.506081 18.207136,-4.245873 19.151036,-1.652527 0.943902,2.593347 -6.09989,7.538059 -15.732768,11.04414 -9.632879,3.506081 -18.2071349,4.245874 -19.151036,1.652526 -0.9439008,-2.593346 6.09989,-7.538058 15.732768,-11.044139 z" filter="url(#filter4198)" transform="matrix(0.8285189,0,0,0.8285189,3.2654381,5.429622)"/><path id="path4186" fill="none" stroke="url(#linearGradient4407)" stroke-dasharray="none" stroke-miterlimit="4" stroke-opacity="1" stroke-width="2" d="M 22.787775,46.527666 C 14.935186,39.938139 10.007207,32.88264 11.781066,30.768559 c 1.773858,-2.114081 9.578308,1.513487 17.431254,8.10318 7.852755,6.58917 12.780568,13.645026 11.006614,15.758845 -1.773763,2.114342 -9.578047,-1.513582 -17.431159,-8.102918 z" filter="url(#filter4192)" transform="matrix(0.8285189,0,0,0.8285189,3.2654381,5.429622)"/><path id="path4180" fill="none" stroke="url(#linearGradient4409)" stroke-dasharray="none" stroke-miterlimit="4" stroke-opacity=".941" stroke-width="2" d="m 21.078737,41.832121 c 1.779933,-10.095774 5.426733,-17.891256 8.144492,-17.41199 2.717759,0.479265 3.477897,9.051735 1.69813,19.147152 -1.780289,10.095608 -5.426733,17.891256 -8.144588,17.411729 -2.717664,-0.479004 -3.478157,-9.05164 -1.698034,-19.146891 z" filter="url(#filter4182)" transform="matrix(0.8285189,0,0,0.8285189,3.2654381,5.429622)"/><path id="path4261" fill="#333" fill-opacity="1" stroke="none" d="m -4,17.5 c 0,1.380712 -1.790861,2.5 -4,2.5 -2.209139,0 -4,-1.119288 -4,-2.5 0,-1.380712 1.790861,-2.5 4,-2.5 2.209139,0 4,1.119288 4,2.5 z" opacity=".1" transform="matrix(1.375,0,0,2.2,35.558636,-8.0027649)"/><path id="path4259" fill="#333" fill-opacity="1" stroke="none" d="m -4,17.5 c 0,1.380712 -1.790861,2.5 -4,2.5 -2.209139,0 -4,-1.119288 -4,-2.5 0,-1.380712 1.790861,-2.5 4,-2.5 2.209139,0 4,1.119288 4,2.5 z" opacity=".3" transform="matrix(1.375,0,0,2.2,34.338187,-6.2589047)"/><path id="path4257" fill="#333" fill-opacity="1" stroke="none" d="m -4,17.5 c 0,1.380712 -1.790861,2.5 -4,2.5 -2.209139,0 -4,-1.119288 -4,-2.5 0,-1.380712 1.790861,-2.5 4,-2.5 2.209139,0 4,1.119288 4,2.5 z" opacity=".1" transform="matrix(1.375,0,0,2.2,45.806603,7.572955)"/><g id="g4247" fill="#dd4814" fill-opacity="1" opacity=".3" transform="translate(11.295508,6.4943996)"><path id="path4249" fill="#dd4814" fill-opacity="1" stroke="none" d="m -4,17.5 c 0,1.380712 -1.790861,2.5 -4,2.5 -2.209139,0 -4,-1.119288 -4,-2.5 0,-1.380712 1.790861,-2.5 4,-2.5 2.209139,0 4,1.119288 4,2.5 z" transform="matrix(1.375,0,0,2.2,18.5,1.5)"/></g><g id="g3122" transform="matrix(1.2069731,0,0,1.2069731,-10.941297,-18.553409)"><path id="path3813" fill="#333" fill-opacity="1" stroke="none" d="m -4,17.5 c 0,1.380712 -1.790861,2.5 -4,2.5 -2.209139,0 -4,-1.119288 -4,-2.5 0,-1.380712 1.790861,-2.5 4,-2.5 2.209139,0 4,1.119288 4,2.5 z" transform="matrix(1.1392135,0,0,1.8227416,45.105643,18.685924)"/><path id="path3829" fill="#777" fill-opacity="1" stroke="none" d="m 35.991935,46.855567 c -2.059102,0 -3.728335,1.669233 -3.728335,3.728335 0,2.059102 1.669233,3.728335 3.728335,3.728335 2.059103,0 3.728336,-1.669233 3.728336,-3.728335 0,-2.059102 -1.669233,-3.728335 -3.728336,-3.728335 z m -2.071297,4.971113 4.142595,0 0,0.828519 -4.142595,0 z"/><g id="g4231" opacity=".6" transform="matrix(0.74566701,0,0,0.7447122,-89.280164,-703.33934)"><path id="path4233" fill="#fff" fill-opacity="1" fill-rule="nonzero" stroke="none" stroke-width="2" d="m 163.03125,1011.875 c -0.0152,0.1585 -0.0312,0.3375 -0.0312,0.5 0,2.7614 2.23858,5 5,5 2.76142,0 5,-2.2386 5,-5 0,-0.1625 -0.0161,-0.3415 -0.0312,-0.5 -0.25605,2.5213 -2.37992,4.5 -4.96875,4.5 -2.58883,0 -4.7127,-1.9787 -4.96875,-4.5 z" color="#000" display="inline" enable-background="accumulate" opacity=".2" overflow="visible" visibility="visible" style="marker:none"/><path id="path4235" fill="url(#linearGradient3129)" fill-opacity="1" fill-rule="nonzero" stroke="none" stroke-width="2" d="m 497,1006.3622 c 0,1.6568 -2.23858,3 -5,3 -2.76142,0 -5,-1.3432 -5,-3 0,-1.6569 2.23858,-3 5,-3 2.76142,0 5,1.3431 5,3 z" color="#000" display="inline" enable-background="accumulate" opacity=".8" overflow="visible" transform="matrix(0.70852063,0,0,0.83333333,-180.59215,171.22703)" visibility="visible" style="marker:none"/></g></g><g id="g4251" fill="#dd4814" fill-opacity="1" opacity=".1" transform="translate(9.1303686,6.310401)"><path id="path4253" fill="#dd4814" fill-opacity="1" stroke="none" d="m -4,17.5 c 0,1.380712 -1.790861,2.5 -4,2.5 -2.209139,0 -4,-1.119288 -4,-2.5 0,-1.380712 1.790861,-2.5 4,-2.5 2.209139,0 4,1.119288 4,2.5 z" transform="matrix(1.375,0,0,2.2,18.5,1.5)"/></g><g id="g4008" transform="translate(13,6.4999989)"><path id="path3773" fill="#333" fill-opacity="1" stroke="none" d="m -4,17.5 c 0,1.380712 -1.790861,2.5 -4,2.5 -2.209139,0 -4,-1.119288 -4,-2.5 0,-1.380712 1.790861,-2.5 4,-2.5 2.209139,0 4,1.119288 4,2.5 z" transform="matrix(1.375,0,0,2.2,18.5,1.5)"/></g><path id="path3853" fill="#dd4814" fill-opacity="1" stroke="none" d="M 20.500001,42 C 18.014718,42 16,44.014718 16,46.5 c 0,2.485281 2.014718,4.5 4.500001,4.5 2.48528,0 4.5,-2.014719 4.5,-4.5 0,-2.485282 -2.01472,-4.5 -4.5,-4.5 z M 18,43.999999 l 1,0 0,1 1,0 0,1 1,0 0,-1 1,0 0,-1 1,0 0,1 -1,0 0,1 -1,0 0,1 1,0 L 22,48 l 1,0 0,1 -1,0 0,-1 -1,0 0,-1.000001 -1,0 L 20,48 l -1,0 0,1 -1,0 0,-1 1,0 0,-1.000001 1,0 0,-1 -1,0 0,-1 -1,0 z" filter="url(#filter3859)"/><path id="path3825" fill="#dd4814" fill-opacity="1" stroke="none" d="M 20.500001,42 C 18.014718,42 16,44.014718 16,46.5 c 0,2.485281 2.014718,4.5 4.500001,4.5 2.48528,0 4.5,-2.014719 4.5,-4.5 0,-2.485282 -2.01472,-4.5 -4.5,-4.5 z M 18,43.999999 l 1,0 0,1 1,0 0,1 1,0 0,-1 1,0 0,-1 1,0 0,1 -1,0 0,1 -1,0 0,1 1,0 L 22,48 l 1,0 0,1 -1,0 0,-1 -1,0 0,-1.000001 -1,0 L 20,48 l -1,0 0,1 -1,0 0,-1 1,0 0,-1.000001 1,0 0,-1 -1,0 0,-1 -1,0 z"/><g id="g4239" opacity=".6" transform="matrix(0.90000002,0,0,0.89884759,-130.70005,-863.46507)"><path id="path4241" fill="#fff" fill-opacity="1" fill-rule="nonzero" stroke="none" stroke-width="2" d="m 163.03125,1011.875 c -0.0152,0.1585 -0.0312,0.3375 -0.0312,0.5 0,2.7614 2.23858,5 5,5 2.76142,0 5,-2.2386 5,-5 0,-0.1625 -0.0161,-0.3415 -0.0312,-0.5 -0.25605,2.5213 -2.37992,4.5 -4.96875,4.5 -2.58883,0 -4.7127,-1.9787 -4.96875,-4.5 z" color="#000" display="inline" enable-background="accumulate" opacity=".2" overflow="visible" visibility="visible" style="marker:none"/><path id="path4243" fill="url(#linearGradient3118)" fill-opacity="1" fill-rule="nonzero" stroke="none" stroke-width="2" d="m 497,1006.3622 c 0,1.6568 -2.23858,3 -5,3 -2.76142,0 -5,-1.3432 -5,-3 0,-1.6569 2.23858,-3 5,-3 2.76142,0 5,1.3431 5,3 z" color="#000" display="inline" enable-background="accumulate" opacity=".8" overflow="visible" transform="matrix(0.70852063,0,0,0.83333333,-180.59215,171.22703)" visibility="visible" style="marker:none"/></g><g id="g3131" transform="matrix(1.2069731,0,0,1.2069731,-10.941297,2.446591)"><path id="path3806" fill="#333" fill-opacity="1" stroke="none" d="m -4,17.5 c 0,1.380712 -1.790861,2.5 -4,2.5 -2.209139,0 -4,-1.119288 -4,-2.5 0,-1.380712 1.790861,-2.5 4,-2.5 2.209139,0 4,1.119288 4,2.5 z" transform="matrix(1.1392135,0,0,1.8227416,36.820454,-5.3411237)"/><path id="path3843" fill="#777" fill-opacity="1" stroke="none" d="m 27.706746,22.828519 c -2.059102,0 -3.728335,1.669233 -3.728335,3.728335 0,2.059102 1.669233,3.728335 3.728335,3.728335 2.059103,0 3.728336,-1.669233 3.728336,-3.728335 0,-2.059102 -1.669233,-3.728335 -3.728336,-3.728335 z m -2.071298,1.657038 c 1.553473,0 2.589122,0 4.142595,0 l 0,4.142594 -4.142595,0 z m 0.828519,0.828519 0,2.485556 2.485557,0 0,-2.485556 z" filter="url(#filter3849)"/><path id="path3827" fill="#777" fill-opacity="1" stroke="none" d="m 27.706746,22.828519 c -2.059102,0 -3.728335,1.669233 -3.728335,3.728335 0,2.059102 1.669233,3.728335 3.728335,3.728335 2.059103,0 3.728336,-1.669233 3.728336,-3.728335 0,-2.059102 -1.669233,-3.728335 -3.728336,-3.728335 z m -2.071298,1.657038 c 1.553473,0 2.589122,0 4.142595,0 l 0,4.142594 -4.142595,0 z m 0.828519,0.828519 0,2.485556 2.485557,0 0,-2.485556 z"/><g id="g2998" opacity=".6" transform="matrix(0.74566701,0,0,0.7447122,-97.565353,-727.36639)"><path id="path5113" fill="#fff" fill-opacity="1" fill-rule="nonzero" stroke="none" stroke-width="2" d="m 163.03125,1011.875 c -0.0152,0.1585 -0.0312,0.3375 -0.0312,0.5 0,2.7614 2.23858,5 5,5 2.76142,0 5,-2.2386 5,-5 0,-0.1625 -0.0161,-0.3415 -0.0312,-0.5 -0.25605,2.5213 -2.37992,4.5 -4.96875,4.5 -2.58883,0 -4.7127,-1.9787 -4.96875,-4.5 z" color="#000" display="inline" enable-background="accumulate" opacity=".2" overflow="visible" visibility="visible" style="marker:none"/><path id="path5118" fill="url(#linearGradient3138)" fill-opacity="1" fill-rule="nonzero" stroke="none" stroke-width="2" d="m 497,1006.3622 c 0,1.6568 -2.23858,3 -5,3 -2.76142,0 -5,-1.3432 -5,-3 0,-1.6569 2.23858,-3 5,-3 2.76142,0 5,1.3431 5,3 z" color="#000" display="inline" enable-background="accumulate" opacity=".8" overflow="visible" transform="matrix(0.70852063,0,0,0.83333333,-180.59215,171.22703)" visibility="visible" style="marker:none"/></g></g><path id="path3865" fill="#333" fill-opacity="1" stroke="none" d="m -4,17.5 a 4,2.5 0 1 1 -8,0 4,2.5 0 1 1 8,0 z" transform="matrix(1.375,0,0,2.2000001,43.500001,3.9999986)"/><path id="path3890" fill="#777" fill-opacity="1" stroke="none" d="m 32.5,38 c -2.48528,0 -4.5,2.014719 -4.5,4.5 0,2.485281 2.01472,4.5 4.5,4.5 2.485282,0 4.500002,-2.014719 4.500002,-4.5 0,-2.485281 -2.01472,-4.5 -4.500002,-4.5 z m -2.499999,6 5,0 0,1 -5,0 z" filter="url(#filter3892)"/><path id="path3867" fill="#777" fill-opacity="1" stroke="none" d="m 32.5,38 c -2.48528,0 -4.5,2.014719 -4.5,4.5 0,2.485281 2.01472,4.5 4.5,4.5 2.485282,0 4.500002,-2.014719 4.500002,-4.5 0,-2.485281 -2.01472,-4.5 -4.500002,-4.5 z m -2.499999,6 5,0 0,1 -5,0 z"/><path id="path3871" fill="#fff" fill-opacity="1" fill-rule="nonzero" stroke="none" stroke-width="2" d="m 28.028078,42.056335 c -0.01368,0.142467 -0.02808,0.303361 -0.02808,0.449424 0,2.482078 2.014722,4.494238 4.5,4.494238 2.485278,0 4.5,-2.01216 4.5,-4.494238 0,-0.146063 -0.01449,-0.306957 -0.02808,-0.449424 -0.230445,2.266265 -2.141928,4.044814 -4.471875,4.044814 -2.329947,0 -4.24143,-1.778549 -4.471875,-4.044814 z" color="#000" display="inline" enable-background="accumulate" opacity=".12" overflow="visible" visibility="visible" style="marker:none"/><path id="path3873" fill="url(#linearGradient3886)" fill-opacity="1" fill-rule="nonzero" stroke="none" stroke-width="2" d="m 497,1006.3622 a 5,3 0 1 1 -10,0 5,3 0 1 1 10,0 z" color="#000" display="inline" enable-background="accumulate" opacity=".48" overflow="visible" transform="matrix(0.63766858,0,0,0.74903966,-281.23299,-713.55807)" visibility="visible" style="marker:none"/><g id="g3937" transform="matrix(1.2069731,0,0,1.2069731,-10.941297,2.446591)"><path id="path3939" fill="#333" fill-opacity="1" stroke="none" d="m -4,17.5 c 0,1.380712 -1.790861,2.5 -4,2.5 -2.209139,0 -4,-1.119288 -4,-2.5 0,-1.380712 1.790861,-2.5 4,-2.5 2.209139,0 4,1.119288 4,2.5 z" transform="matrix(1.1392135,0,0,1.8227416,36.820454,-5.3411237)"/><path id="path3941" fill="#777" fill-opacity="1" stroke="none" d="m 27.706746,22.828519 c -2.059102,0 -3.728335,1.669233 -3.728335,3.728335 0,2.059102 1.669233,3.728335 3.728335,3.728335 2.059103,0 3.728336,-1.669233 3.728336,-3.728335 0,-2.059102 -1.669233,-3.728335 -3.728336,-3.728335 z m -2.071298,1.657038 c 1.553473,0 2.589122,0 4.142595,0 l 0,4.142594 -4.142595,0 z m 0.828519,0.828519 0,2.485556 2.485557,0 0,-2.485556 z" filter="url(#filter3849)"/><path id="path3943" fill="#777" fill-opacity="1" stroke="none" d="m 27.706746,22.828519 c -2.059102,0 -3.728335,1.669233 -3.728335,3.728335 0,2.059102 1.669233,3.728335 3.728335,3.728335 2.059103,0 3.728336,-1.669233 3.728336,-3.728335 0,-2.059102 -1.669233,-3.728335 -3.728336,-3.728335 z m -2.071298,1.657038 c 1.553473,0 2.589122,0 4.142595,0 l 0,4.142594 -4.142595,0 z m 0.828519,0.828519 0,2.485556 2.485557,0 0,-2.485556 z"/><g id="g3945" opacity=".6" transform="matrix(0.74566701,0,0,0.7447122,-97.565353,-727.36639)"><path id="path3947" fill="#fff" fill-opacity="1" fill-rule="nonzero" stroke="none" stroke-width="2" d="m 163.03125,1011.875 c -0.0152,0.1585 -0.0312,0.3375 -0.0312,0.5 0,2.7614 2.23858,5 5,5 2.76142,0 5,-2.2386 5,-5 0,-0.1625 -0.0161,-0.3415 -0.0312,-0.5 -0.25605,2.5213 -2.37992,4.5 -4.96875,4.5 -2.58883,0 -4.7127,-1.9787 -4.96875,-4.5 z" color="#000" display="inline" enable-background="accumulate" opacity=".2" overflow="visible" visibility="visible" style="marker:none"/><path id="path3949" fill="url(#linearGradient3138)" fill-opacity="1" fill-rule="nonzero" stroke="none" stroke-width="2" d="m 497,1006.3622 c 0,1.6568 -2.23858,3 -5,3 -2.76142,0 -5,-1.3432 -5,-3 0,-1.6569 2.23858,-3 5,-3 2.76142,0 5,1.3431 5,3 z" color="#000" display="inline" enable-background="accumulate" opacity=".8" overflow="visible" transform="matrix(0.70852063,0,0,0.83333333,-180.59215,171.22703)" visibility="visible" style="marker:none"/></g></g></g></svg>