<svg xmlns="http://www.w3.org/2000/svg" xmlns:svg="http://www.w3.org/2000/svg" xmlns:xlink="http://www.w3.org/1999/xlink" id="svg2985" width="48" height="48" version="1.1"><defs id="defs2987"><linearGradient id="linearGradient3922"><stop id="stop3924" offset="0" stop-color="#fff" stop-opacity="1"/><stop id="stop3926" offset="1" stop-color="#fff" stop-opacity="0"/></linearGradient><linearGradient id="linearGradient3895"><stop id="stop3858" offset="0" stop-color="#dfd14e" stop-opacity="1"/><stop id="stop3853" offset="1" stop-color="#bfb343" stop-opacity="1"/></linearGradient><linearGradient id="linearGradient3889"><stop id="stop3856" offset="0" stop-color="#c95218" stop-opacity="1"/><stop id="stop3855" offset="1" stop-color="#ac4615" stop-opacity="1"/></linearGradient><linearGradient id="linearGradient3871"><stop id="stop4119" offset="0" stop-color="#004f86" stop-opacity="1"/><stop id="stop3910" offset="1" stop-color="#003559" stop-opacity="1"/></linearGradient><linearGradient id="linearGradient3840"><stop id="stop3862" offset="0" stop-color="#9f0000" stop-opacity="1"/><stop id="stop3896" offset="1" stop-color="#7f0000" stop-opacity="1"/></linearGradient><linearGradient id="linearGradient3025"><stop id="stop3027" offset="0" stop-color="#fff" stop-opacity="1"/><stop id="stop3033" offset=".45" stop-color="#f7f7f5" stop-opacity="1"/><stop id="stop3029" offset="1" stop-color="#e2e2de" stop-opacity="1"/></linearGradient><linearGradient id="linearGradient3927-5"><stop id="stop3939-5" offset="0" stop-color="#ccc" stop-opacity="1"/><stop id="stop3941-0" offset="1" stop-color="#c9c4c4" stop-opacity="1"/></linearGradient><linearGradient id="linearGradient4030-7"><stop id="stop4032-1" offset="0" stop-color="#000" stop-opacity="1"/><stop id="stop4034-3" offset="1" stop-color="#000" stop-opacity="0"/></linearGradient><linearGradient id="linearGradient3284" x1="2" x2="46" y1="5" y2="41" gradientTransform="translate(0,17)" gradientUnits="userSpaceOnUse" xlink:href="#linearGradient3927-5"/><radialGradient id="radialGradient3287" cx="24" cy="40" r="22" fx="24" fy="40" gradientTransform="matrix(1,0,0,0.81818182,0,7.2727273)" gradientUnits="userSpaceOnUse" xlink:href="#linearGradient3025"/><linearGradient id="linearGradient3291" x1="6" x2="6" y1="45" y2="46" gradientTransform="translate(2,13)" gradientUnits="userSpaceOnUse" xlink:href="#linearGradient4030-7"/><linearGradient id="linearGradient3981-8"><stop id="stop3983-8" offset="0" stop-color="#000" stop-opacity=".106"/><stop id="stop3985-4" offset="1" stop-color="#000" stop-opacity="0"/></linearGradient><radialGradient id="radialGradient3308" cx="14.75" cy="26.3" r="17" fx="14.75" fy="26.3" gradientTransform="matrix(1.6938162e-5,0.29411761,-2.0484428,0,79.050224,19.661767)" gradientUnits="userSpaceOnUse" xlink:href="#linearGradient3981-8"/><radialGradient id="radialGradient3867" cx="8" cy="35" r="2.5" fx="8" fy="35" gradientTransform="matrix(0,-4,8.3199993,-2.7690356e-6,-269.19997,85.000097)" gradientUnits="userSpaceOnUse" xlink:href="#linearGradient3895"/><radialGradient id="radialGradient3869" cx="8" cy="35" r="2.5" fx="8" fy="35" gradientTransform="matrix(0,-4,8.3199993,-2.7690356e-6,-252.19997,85.000097)" gradientUnits="userSpaceOnUse" xlink:href="#linearGradient3889"/><radialGradient id="radialGradient3879" cx="8" cy="35" r="2.5" fx="8" fy="35" gradientTransform="matrix(0,-4,8.3199993,-2.7690356e-6,-269.19997,70.000097)" gradientUnits="userSpaceOnUse" xlink:href="#linearGradient3840"/><radialGradient id="radialGradient3883" cx="8" cy="35" r="2.5" fx="8" fy="35" gradientTransform="matrix(0,-4,8.3199993,-2.7690356e-6,-252.19997,70.000097)" gradientUnits="userSpaceOnUse" xlink:href="#linearGradient3871"/><radialGradient id="radialGradient3876" cx="8" cy="35" r="2.5" fx="8" fy="35" gradientTransform="matrix(0,-4,8.3199993,-2.7690356e-6,-251.19997,70.000096)" gradientUnits="userSpaceOnUse" xlink:href="#linearGradient3840"/><radialGradient id="radialGradient3892" cx="8.5" cy="34.159" r="2.5" fx="8.5" fy="34.159" gradientTransform="matrix(1.3369747e-6,-4,6.0000005,5.653892e-7,-189.95195,86.999982)" gradientUnits="userSpaceOnUse" xlink:href="#linearGradient3889"/><radialGradient id="radialGradient3894" cx="8.5" cy="34.159" r="2.5" fx="8.5" fy="34.159" gradientTransform="matrix(1.0703081e-6,-4,6.0000005,1.6538926e-7,-171.95194,86.999995)" gradientUnits="userSpaceOnUse" xlink:href="#linearGradient3895"/><radialGradient id="radialGradient3898" cx="8.5" cy="34.159" r="2.5" fx="8.5" fy="34.159" gradientTransform="matrix(7.0397688e-7,-4,6.0000015,-3.8410796e-7,-189.95197,70.000016)" gradientUnits="userSpaceOnUse" xlink:href="#linearGradient3840"/><radialGradient id="radialGradient3908" cx="8.5" cy="34.159" r="2.5" fx="8.5" fy="34.159" gradientTransform="matrix(1.3101644e-6,-4,5.9999999,5.2517387e-7,-171.95193,69.999983)" gradientUnits="userSpaceOnUse" xlink:href="#linearGradient3871"/><linearGradient id="linearGradient3928" x1="19" x2="12" y1="36" y2="25" gradientUnits="userSpaceOnUse" xlink:href="#linearGradient3927-5"/><linearGradient id="linearGradient3936" x1="37" x2="30" y1="36" y2="25" gradientUnits="userSpaceOnUse" xlink:href="#linearGradient3927-5"/><linearGradient id="linearGradient3944" x1="19" x2="12" y1="53" y2="42" gradientUnits="userSpaceOnUse" xlink:href="#linearGradient3927-5"/><linearGradient id="linearGradient3952" x1="37" x2="30" y1="53" y2="42" gradientUnits="userSpaceOnUse" xlink:href="#linearGradient3927-5"/><filter id="filter3989"><feGaussianBlur id="feGaussianBlur3991" stdDeviation=".13"/></filter><filter id="filter3993"><feGaussianBlur id="feGaussianBlur3995" stdDeviation=".13"/></filter><filter id="filter3997"><feGaussianBlur id="feGaussianBlur3999" stdDeviation=".13"/></filter><filter id="filter4001"><feGaussianBlur id="feGaussianBlur4003" stdDeviation=".13"/></filter><filter id="filter4015" width="1.138" height="1.9" x="-.069" y="-.45"><feGaussianBlur id="feGaussianBlur4017" stdDeviation=".375"/></filter><filter id="filter4021" width="1.277" height="2.8" x="-.138" y="-.9"><feGaussianBlur id="feGaussianBlur4023" stdDeviation=".75"/></filter><radialGradient id="radialGradient4075" cx="8.5" cy="34.159" r="2.5" fx="8.5" fy="34.159" gradientTransform="matrix(7.0397688e-7,-4,6.0000015,-3.8410796e-7,-189.95197,70.000016)" gradientUnits="userSpaceOnUse" xlink:href="#linearGradient3840"/><linearGradient id="linearGradient4077" x1="19" x2="12" y1="36" y2="25" gradientUnits="userSpaceOnUse" xlink:href="#linearGradient3927-5"/><linearGradient id="linearGradient4080" x1="19" x2="12" y1="36" y2="25" gradientUnits="userSpaceOnUse" xlink:href="#linearGradient3840"/><radialGradient id="radialGradient4083" cx="9.375" cy="34.439" r="2.5" fx="9.375" fy="34.439" gradientTransform="matrix(3.5214589e-6,-3.2000002,8.7999964,7.205804e-6,-286.0627,63.999756)" gradientUnits="userSpaceOnUse" xlink:href="#linearGradient3840"/><radialGradient id="radialGradient4085" cx="8.5" cy="34.159" r="2.5" fx="8.5" fy="34.159" gradientTransform="matrix(1.3369747e-6,-4,6.0000005,5.653892e-7,-189.95195,86.999982)" gradientUnits="userSpaceOnUse" xlink:href="#linearGradient3889"/><linearGradient id="linearGradient4087" x1="19" x2="12" y1="53" y2="42" gradientUnits="userSpaceOnUse" xlink:href="#linearGradient3927-5"/><linearGradient id="linearGradient4090" x1="19" x2="12" y1="53" y2="42" gradientUnits="userSpaceOnUse" xlink:href="#linearGradient3889"/><radialGradient id="radialGradient4093" cx="9.375" cy="34.439" r="2.5" fx="9.375" fy="34.439" gradientTransform="matrix(-3.7301946e-6,-3.1999999,8.8000029,-1.2736246e-5,-286.06289,81.000437)" gradientUnits="userSpaceOnUse" xlink:href="#linearGradient3889"/><radialGradient id="radialGradient4095" cx="8.5" cy="34.159" r="2.5" fx="8.5" fy="34.159" gradientTransform="matrix(1.3101644e-6,-4,5.9999999,5.2517387e-7,-171.95193,69.999983)" gradientUnits="userSpaceOnUse" xlink:href="#linearGradient3871"/><linearGradient id="linearGradient4097" x1="37" x2="30" y1="36" y2="25" gradientUnits="userSpaceOnUse" xlink:href="#linearGradient3927-5"/><linearGradient id="linearGradient4100" x1="37" x2="30" y1="36" y2="25" gradientUnits="userSpaceOnUse" xlink:href="#linearGradient3871"/><radialGradient id="radialGradient4103" cx="9.643" cy="34.45" r="2.5" fx="9.643" fy="34.45" gradientTransform="matrix(7.3167916e-7,-2.8,8.0000016,2.9842131e-7,-240.60263,60.999992)" gradientUnits="userSpaceOnUse" xlink:href="#linearGradient3871"/><radialGradient id="radialGradient4105" cx="8.5" cy="34.159" r="2.5" fx="8.5" fy="34.159" gradientTransform="matrix(1.0703081e-6,-4,6.0000005,1.6538926e-7,-171.95194,86.999995)" gradientUnits="userSpaceOnUse" xlink:href="#linearGradient3895"/><linearGradient id="linearGradient4107" x1="37" x2="30" y1="53" y2="42" gradientUnits="userSpaceOnUse" xlink:href="#linearGradient3927-5"/><linearGradient id="linearGradient4110" x1="37" x2="30" y1="53" y2="42" gradientUnits="userSpaceOnUse" xlink:href="#linearGradient3895"/><radialGradient id="radialGradient4113" cx="9.375" cy="34.444" r="2.5" fx="9.375" fy="34.444" gradientTransform="matrix(3.8133028e-6,-3.2000003,8.3999963,7.7518822e-6,-254.33258,80.999737)" gradientUnits="userSpaceOnUse" xlink:href="#linearGradient3895"/></defs><metadata id="metadata2990"/><g id="layer1" transform="translate(0,-16)"><g id="g4041" opacity=".8" transform="translate(0,-17.5)"><rect id="rect4043" width="13" height="2" x="9" y="54" fill="#000" fill-opacity="1" stroke="none" filter="url(#filter4015)" rx="1" ry=".938"/><rect id="rect4045" width="13" height="2" x="9" y="54" fill="#000" fill-opacity="1" stroke="none" filter="url(#filter4021)" rx="1" ry=".938"/></g><g id="g4035" opacity=".8" transform="translate(18,-17.5)"><rect id="rect4037" width="13" height="2" x="9" y="54" fill="#000" fill-opacity="1" stroke="none" filter="url(#filter4015)" rx="1" ry=".938"/><rect id="rect4039" width="13" height="2" x="9" y="54" fill="#000" fill-opacity="1" stroke="none" filter="url(#filter4021)" rx="1" ry=".938"/></g><g id="g4029" opacity=".8" transform="translate(18,-0.5)"><rect id="rect4031" width="13" height="2" x="9" y="54" fill="#000" fill-opacity="1" stroke="none" filter="url(#filter4015)" rx="1" ry=".938"/><rect id="rect4033" width="13" height="2" x="9" y="54" fill="#000" fill-opacity="1" stroke="none" filter="url(#filter4021)" rx="1" ry=".938"/></g><g id="g4025" opacity=".8" transform="translate(0,-0.5)"><rect id="rect4005" width="13" height="2" x="9" y="54" fill="#000" fill-opacity="1" stroke="none" filter="url(#filter4015)" rx="1" ry=".938"/><rect id="rect4019" width="13" height="2" x="9" y="54" fill="#000" fill-opacity="1" stroke="none" filter="url(#filter4021)" rx="1" ry=".938"/></g><path id="path3983" fill="#000" fill-opacity="1" stroke="none" d="m 28,25 c -1,0 -1,1 -1,1 l 0,2 0,9 c 0,0.554 0.446,1 1,1 l 11,0 c 0.554,0 1,-0.446 1,-1 l 0,-9 c 0,0 0,-1 -1,-1 l -4,0 c -1,0 -1,-2 -2,-2 l -5,0 z" filter="url(#filter4001)"/><path id="path3872" fill="url(#radialGradient4103)" fill-opacity="1" stroke="none" d="m 39.999999,27.999999 0,9.000001 c 0,0.554 -0.446,1 -1,1 L 28,38 c -0.554,0 -1,-0.446 -1,-1 l 0,-9.000001 z"/><path id="path3874" fill="url(#linearGradient4100)" fill-opacity="1" stroke="none" d="m 27,25.999999 c 0,0 0,-1 1,-1 l 5,0 c 1,0 1,2 2,2 1.666667,0 4,0 4,0 1,0 0.999999,1 0.999999,1 l -12.999999,0 z"/><path id="path3972" fill="#000" fill-opacity="1" stroke="none" d="M 10 9 C 9 9 9 10 9 10 L 9 12 L 9 21 C 9 21.554 9.446 22 10 22 L 21 22 C 21.554 22 22 21.554 22 21 L 22 12 C 22 12 22 11 21 11 L 17 11 C 16 11 16 9 15 9 L 10 9 z" filter="url(#filter3997)" transform="translate(0,16)"/><path id="path3877" fill="url(#radialGradient4083)" fill-opacity="1" stroke="none" d="m 21.999999,28 0,9.000001 c 0,0.554 -0.446,1 -1,1 l -10.999999,0 c -0.554,0 -1,-0.446 -1,-1 L 9,28 z"/><path id="path3885" fill="url(#linearGradient4080)" fill-opacity="1" stroke="none" d="m 9,26 c 0,0 0,-1 1,-1 l 5,0 c 1,0 1,2 2,2 1.666667,0 4,0 4,0 1,0 0.999999,1 0.999999,1 L 9,28 z"/><path id="path3985" fill="#000" fill-opacity="1" stroke="none" d="m 28,42 c -1,0 -1,1 -1,1 l 0,2 0,9 c 0,0.554 0.446,1 1,1 l 11,0 c 0.554,0 1,-0.446 1,-1 l 0,-9 c 0,0 0,-1 -1,-1 l -4,0 c -1,0 -1,-2 -2,-2 l -5,0 z" filter="url(#filter3993)"/><path id="path3888" fill="url(#radialGradient4113)" fill-opacity="1" stroke="none" d="m 39.999999,44.999998 0,9.000001 c 0,0.554 -0.446,1 -1,1 l -10.999999,0 c -0.554,0 -1,-0.446 -1,-1 l 0,-9.000001 z"/><path id="path3890" fill="url(#linearGradient4110)" fill-opacity="1" stroke="none" d="m 27,42.999998 c 0,0 0,-1 1,-1 l 5,0 c 1,0 1,2 2,2 1.666667,0 4,0 4,0 1,0 0.999999,1 0.999999,1 l -12.999999,0 z"/><path id="path3987" fill="#000" fill-opacity="1" stroke="none" d="m 10,42 c -1,0 -1,1 -1,1 l 0,2 0,9 c 0,0.554 0.446,1 1,1 l 11,0 c 0.554,0 1,-0.446 1,-1 l 0,-9 c 0,0 0,-1 -1,-1 l -4,0 c -1,0 -1,-2 -2,-2 l -5,0 z" filter="url(#filter3989)"/><path id="path3884" fill="url(#radialGradient4093)" fill-opacity="1" stroke="none" d="m 21.999999,44.999999 0,9.000001 c 0,0.554 -0.446,1 -1,1 L 10,55 C 9.446,55 9,54.554 9,54 l 0,-9.000001 z"/><path id="path3886" fill="url(#linearGradient4090)" fill-opacity="1" stroke="none" d="m 9,42.999999 c 0,0 0,-1 1,-1 l 5,0 c 1,0 1,2 2,2 1.666667,0 4,0 4,0 1,0 0.999999,1 0.999999,1 L 9,44.999999 z"/><path id="path4123" fill="#fff" fill-opacity="1" stroke="none" d="m 9,26 c 0,0 0,-1 1,-1 l 5,0 c 1,0 1,2 2,2 1.666667,0 4,0 4,0 1,0 0.999999,1 0.999999,1 L 9,28 z" opacity=".5"/><path id="path4125" fill="#fff" fill-opacity="1" stroke="none" d="m 27,25.999999 c 0,0 0,-1 1,-1 l 5,0 c 1,0 1,2 2,2 1.666667,0 4,0 4,0 1,0 0.999999,1 0.999999,1 l -12.999999,0 z" opacity=".5"/><path id="path4127" fill="#fff" fill-opacity="1" stroke="none" d="m 27,42.999998 c 0,0 0,-1 1,-1 l 5,0 c 1,0 1,2 2,2 1.666667,0 4,0 4,0 1,0 0.999999,1 0.999999,1 l -12.999999,0 z" opacity=".5"/><path id="path4129" fill="#fff" fill-opacity="1" stroke="none" d="m 9,42.999999 c 0,0 0,-1 1,-1 l 5,0 c 1,0 1,2 2,2 1.666667,0 4,0 4,0 1,0 0.999999,1 0.999999,1 L 9,44.999999 z" opacity=".5"/></g></svg>