<svg xmlns="http://www.w3.org/2000/svg" xmlns:svg="http://www.w3.org/2000/svg" xmlns:xlink="http://www.w3.org/1999/xlink" id="svg2985" width="48" height="48" version="1.1"><defs id="defs2987"><linearGradient id="linearGradient4538"><stop id="stop4540" offset="0" stop-color="#fff" stop-opacity="1"/><stop id="stop4546" offset=".5" stop-color="#fff" stop-opacity="0"/><stop id="stop4542" offset="1" stop-color="#fff" stop-opacity="0"/></linearGradient><linearGradient id="linearGradient4195"><stop id="stop4197" offset="0" stop-color="#df5e28" stop-opacity=".941"/><stop id="stop4199" offset="1" stop-color="#1a1716" stop-opacity=".941"/></linearGradient><filter id="filter11507" color-interpolation-filters="sRGB"><feGaussianBlur id="feGaussianBlur11509" stdDeviation="1.056"/></filter><linearGradient id="linearGradient10954"><stop id="stop10956" offset="0" stop-color="#909090" stop-opacity="1"/><stop id="stop10958" offset="1" stop-color="#cecece" stop-opacity="1"/></linearGradient><linearGradient id="linearGradient10938"><stop id="stop10940" offset="0" stop-color="#dadada" stop-opacity="1"/><stop id="stop10942" offset="1" stop-color="#f6f6f5" stop-opacity="1"/></linearGradient><linearGradient id="linearGradient11438"><stop id="stop11440" offset="0" stop-color="#babdb6" stop-opacity="1"/><stop id="stop11442" offset="1" stop-color="#4a4d46" stop-opacity="1"/></linearGradient><linearGradient id="linearGradient10966"><stop id="stop10968" offset="0" stop-color="#fff" stop-opacity="1"/><stop id="stop10970" offset="1" stop-color="#f0f0f0" stop-opacity="1"/></linearGradient><linearGradient id="linearGradient11473"><stop id="stop11475" offset="0" stop-color="#ff4100" stop-opacity="1"/><stop id="stop4454" offset="1" stop-color="#7f2000" stop-opacity="1"/></linearGradient><linearGradient id="linearGradient4788"><stop id="stop4790" offset="0" stop-color="#fff" stop-opacity="1"/><stop id="stop4792" offset="1" stop-color="#fff" stop-opacity="0"/></linearGradient><radialGradient id="radialGradient12777" cx="144.167" cy="129.174" r="97.906" fx="144.167" fy="129.174" gradientTransform="matrix(1.1657896,-0.05054328,0.0329754,0.74679303,-28.160936,39.99441)" gradientUnits="userSpaceOnUse" xlink:href="#linearGradient12771"/><linearGradient id="linearGradient12771"><stop id="stop12773" offset="0" stop-color="#fff" stop-opacity="1"/><stop id="stop12775" offset="1" stop-color="#fff" stop-opacity="0"/></linearGradient><radialGradient id="radialGradient3521" cx="144.167" cy="129.174" r="97.906" fx="144.167" fy="129.174" gradientTransform="matrix(1.1657896,-0.05054328,0.0329754,0.74679303,-28.160936,39.99441)" gradientUnits="userSpaceOnUse" xlink:href="#linearGradient12771"/><radialGradient id="radialGradient3529" cx="144.167" cy="129.174" r="97.906" fx="144.167" fy="129.174" gradientTransform="matrix(1.1657896,-0.05054328,0.0329754,0.74679303,-28.160936,39.99441)" gradientUnits="userSpaceOnUse" xlink:href="#linearGradient12771"/><radialGradient id="radialGradient3537" cx="144.167" cy="129.174" r="97.906" fx="144.167" fy="129.174" gradientTransform="matrix(1.1657896,-0.05054328,0.0329754,0.74679303,-28.160936,39.99441)" gradientUnits="userSpaceOnUse" xlink:href="#linearGradient12771"/><radialGradient id="radialGradient3545" cx="144.167" cy="129.174" r="97.906" fx="144.167" fy="129.174" gradientTransform="matrix(1.1657896,-0.05054328,0.0329754,0.74679303,-28.160936,39.99441)" gradientUnits="userSpaceOnUse" xlink:href="#linearGradient12771"/><radialGradient id="radialGradient3553" cx="144.167" cy="129.174" r="97.906" fx="144.167" fy="129.174" gradientTransform="matrix(1.1657896,-0.05054328,0.0329754,0.74679303,-28.160936,39.99441)" gradientUnits="userSpaceOnUse" xlink:href="#linearGradient12771"/><radialGradient id="radialGradient3561" cx="144.167" cy="129.174" r="97.906" fx="144.167" fy="129.174" gradientTransform="matrix(1.1657896,-0.05054328,0.0329754,0.74679303,-28.160936,39.99441)" gradientUnits="userSpaceOnUse" xlink:href="#linearGradient12771"/><radialGradient id="radialGradient3569" cx="144.167" cy="129.174" r="97.906" fx="144.167" fy="129.174" gradientTransform="matrix(1.1657896,-0.05054328,0.0329754,0.74679303,-28.160936,39.99441)" gradientUnits="userSpaceOnUse" xlink:href="#linearGradient12771"/><radialGradient id="radialGradient3577" cx="144.167" cy="129.174" r="97.906" fx="144.167" fy="129.174" gradientTransform="matrix(1.1657896,-0.05054328,0.0329754,0.74679303,-28.160936,39.99441)" gradientUnits="userSpaceOnUse" xlink:href="#linearGradient12771"/><radialGradient id="radialGradient3585" cx="144.167" cy="129.174" r="97.906" fx="144.167" fy="129.174" gradientTransform="matrix(1.1657896,-0.05054328,0.0329754,0.74679303,-28.160936,39.99441)" gradientUnits="userSpaceOnUse" xlink:href="#linearGradient12771"/><radialGradient id="radialGradient3593" cx="144.167" cy="129.174" r="97.906" fx="144.167" fy="129.174" gradientTransform="matrix(1.1657896,-0.05054328,0.0329754,0.74679303,-28.160936,39.99441)" gradientUnits="userSpaceOnUse" xlink:href="#linearGradient12771"/><radialGradient id="radialGradient3601" cx="144.167" cy="129.174" r="97.906" fx="144.167" fy="129.174" gradientTransform="matrix(1.1657896,-0.05054328,0.0329754,0.74679303,-28.160936,39.99441)" gradientUnits="userSpaceOnUse" xlink:href="#linearGradient12771"/><radialGradient id="radialGradient3665" cx="144.167" cy="129.174" r="97.906" fx="144.167" fy="129.174" gradientTransform="matrix(1.1657896,-0.05054328,0.0329754,0.74679303,-28.160936,39.99441)" gradientUnits="userSpaceOnUse" xlink:href="#linearGradient12771"/><radialGradient id="radialGradient3348" cx="149.565" cy="258.761" r="116.231" fx="149.565" fy="258.761" gradientTransform="matrix(0.17091321,2.3948575e-4,-1.885288e-4,0.1345469,-0.82414948,18.425831)" gradientUnits="userSpaceOnUse" xlink:href="#linearGradient10966"/><linearGradient id="linearGradient3355" x1="134.833" x2="171.903" y1="68.529" y2="206.876" gradientTransform="matrix(0.17601918,0,0,0.17980627,-1.587065,12.337364)" gradientUnits="userSpaceOnUse" xlink:href="#linearGradient10938"/><linearGradient id="linearGradient3357" x1="184.951" x2="185.071" y1="149.21" y2="236.397" gradientTransform="matrix(0.17980539,0,0,0.17980539,-0.63860179,10.853331)" gradientUnits="userSpaceOnUse" xlink:href="#linearGradient11438"/><radialGradient id="radialGradient3387" cx="144.167" cy="129.174" r="97.906" fx="144.167" fy="129.174" gradientTransform="matrix(1.1657896,-0.05054328,0.0329754,0.74679303,-28.160936,39.99441)" gradientUnits="userSpaceOnUse" xlink:href="#linearGradient12771"/><radialGradient id="radialGradient3404" cx="326.021" cy="58" r="12.5" fx="326.021" fy="58" gradientTransform="matrix(-1.8243761,0.00876531,-0.00620867,-1.3078007,609.52907,98.067298)" gradientUnits="userSpaceOnUse" xlink:href="#linearGradient4788"/><radialGradient id="radialGradient3407" cx="326.021" cy="58" r="12.5" fx="326.021" fy="58" gradientTransform="matrix(-1.8882016,0.00857771,-0.00642588,-1.2798107,636.86026,96.523354)" gradientUnits="userSpaceOnUse" xlink:href="#linearGradient4788"/><radialGradient id="radialGradient4014" cx="149.565" cy="190.137" r="108.515" fx="149.565" fy="190.137" gradientTransform="matrix(0.27084087,0,0,0.17776648,-16.458295,8.8402271)" gradientUnits="userSpaceOnUse" xlink:href="#linearGradient11473"/><linearGradient id="linearGradient4020" x1="141.315" x2="141.315" y1="237.286" y2="57.029" gradientTransform="matrix(0.16968376,2.3939518e-4,-2.3776336e-4,0.17084857,-1.344677,13.527818)" gradientUnits="userSpaceOnUse" xlink:href="#linearGradient10954"/><radialGradient id="radialGradient3889" cx="189.702" cy="230.104" r="108.515" fx="189.702" fy="230.104" gradientTransform="matrix(0.20312507,-0.08812329,0.12363256,0.3357866,-42.385541,-18.859714)" gradientUnits="userSpaceOnUse" xlink:href="#linearGradient4195-5"/><linearGradient id="linearGradient4195-5"><stop id="stop4197-5" offset="0" stop-color="#ff5200" stop-opacity="1"/><stop id="stop4199-9" offset="1" stop-color="#000" stop-opacity="1"/></linearGradient><filter id="filter3920"><feGaussianBlur id="feGaussianBlur3922" stdDeviation=".237"/></filter><filter id="filter4015" width="1.72" height="1.72" x="-.36" y="-.36"><feGaussianBlur id="feGaussianBlur4017" stdDeviation=".75"/></filter><filter id="filter4025" width="1.72" height="1.72" x="-.36" y="-.36"><feGaussianBlur id="feGaussianBlur4027" stdDeviation=".75"/></filter><filter id="filter4035" width="1.72" height="1.72" x="-.36" y="-.36"><feGaussianBlur id="feGaussianBlur4037" stdDeviation=".75"/></filter><radialGradient id="radialGradient4112" cx="149.565" cy="190.137" r="108.515" fx="149.565" fy="190.137" gradientTransform="matrix(0.27084087,0,0,0.17776648,-16.458295,8.8402271)" gradientUnits="userSpaceOnUse" xlink:href="#linearGradient11473"/><radialGradient id="radialGradient4115" cx="149.565" cy="190.137" r="108.515" fx="149.565" fy="190.137" gradientTransform="matrix(0.27084087,0,0,0.17776648,-16.458295,8.8402271)" gradientUnits="userSpaceOnUse" xlink:href="#linearGradient11473"/><filter id="filter11490-5-0" width="1.214" height="3.703" x="-.107" y="-1.352" color-interpolation-filters="sRGB"><feGaussianBlur id="feGaussianBlur11492-5-8" stdDeviation="1.83"/></filter><filter id="filter11472-2-8" width="1.104" height="2.311" x="-.052" y="-.655" color-interpolation-filters="sRGB"><feGaussianBlur id="feGaussianBlur11474-3-4" stdDeviation=".887"/></filter><linearGradient id="linearGradient3837"><stop id="stop3839" offset="0" stop-color="#c3beba" stop-opacity="1"/><stop id="stop3841" offset="1" stop-color="#e2e1de" stop-opacity="1"/></linearGradient><linearGradient id="linearGradient4159" x1="7" x2="24" y1="51" y2="51" gradientTransform="matrix(0.95238095,0,0,0.875,-33.824402,-74.437499)" gradientUnits="userSpaceOnUse" xlink:href="#linearGradient3837"/><radialGradient id="radialGradient3300" cx="17.048" cy="33.642" r="13.703" fx="17.048" fy="33.642" gradientTransform="matrix(2.6699524,0,0,2.0864141,-23.095766,-52.716814)" gradientUnits="userSpaceOnUse" xlink:href="#linearGradient3991-2-6"/><linearGradient id="linearGradient3991-2-6"><stop id="stop3993-6-8" offset="0" stop-color="#fff" stop-opacity="1"/><stop id="stop3995-6-3" offset="1" stop-color="#fff" stop-opacity="0"/></linearGradient><radialGradient id="radialGradient3292" cx="14.98" cy="44.726" r="4.36" fx="14.98" fy="44.726" gradientTransform="matrix(8.8874294,0,0,9.3500469,-117.55916,-383.60227)" gradientUnits="userSpaceOnUse" xlink:href="#linearGradient3999-1-7"/><linearGradient id="linearGradient3999-1-7"><stop id="stop4001-2-6" offset="0" stop-color="#fff" stop-opacity="1"/><stop id="stop4003-9-5" offset="1" stop-color="#fff" stop-opacity="0"/></linearGradient><linearGradient id="linearGradient3983-4-1"><stop id="stop3985-7-3" offset="0" stop-color="#fff" stop-opacity="1"/><stop id="stop3987-8-6" offset="1" stop-color="#fff" stop-opacity="0"/></linearGradient><linearGradient id="linearGradient4007-0-4"><stop id="stop4009-0-6" offset="0" stop-color="#fff" stop-opacity="1"/><stop id="stop4011-1-4" offset="1" stop-color="#fff" stop-opacity="0"/></linearGradient><linearGradient id="linearGradient3991-2-6-2"><stop id="stop3993-6-8-8" offset="0" stop-color="#fff" stop-opacity="1"/><stop id="stop3995-6-3-5" offset="1" stop-color="#fff" stop-opacity="0"/></linearGradient><radialGradient id="radialGradient3114" cx="14.98" cy="44.726" r="4.36" fx="14.98" fy="44.726" gradientTransform="matrix(6.0596109,0,0,6.375032,-80.421584,-259.15272)" gradientUnits="userSpaceOnUse" xlink:href="#linearGradient3999-1-7-3"/><linearGradient id="linearGradient3999-1-7-3"><stop id="stop4001-2-6-8" offset="0" stop-color="#fff" stop-opacity="1"/><stop id="stop4003-9-5-7" offset="1" stop-color="#fff" stop-opacity="0"/></linearGradient><radialGradient id="radialGradient4691" cx="14.98" cy="44.726" r="4.36" fx="14.98" fy="44.726" gradientTransform="matrix(6.0596109,0,0,-6.375032,-71.76533,328.37147)" gradientUnits="userSpaceOnUse" xlink:href="#linearGradient3999-1-7-3"/><radialGradient id="radialGradient4694" cx="17.048" cy="33.642" r="13.703" fx="17.048" fy="33.642" gradientTransform="matrix(1.8204221,0,0,-1.4225551,-6.4544955,91.798396)" gradientUnits="userSpaceOnUse" xlink:href="#linearGradient3991-2-6-2"/><radialGradient id="radialGradient4697" cx="12.846" cy="48.694" r="10.719" fx="12.846" fy="48.694" gradientTransform="matrix(2.2739145,0,0,-1.959257,-12.418051,127.56579)" gradientUnits="userSpaceOnUse" xlink:href="#linearGradient4007-0-4"/><radialGradient id="radialGradient4700" cx="23.192" cy="44.639" r="8.988" fx="23.192" fy="44.639" gradientTransform="matrix(3.1906793,-0.30293736,-0.29800432,-3.1395237,-30.076275,187.71223)" gradientUnits="userSpaceOnUse" xlink:href="#linearGradient3983-4-1"/><radialGradient id="radialGradient4704" cx="14.98" cy="44.726" r="4.36" fx="14.98" fy="44.726" gradientTransform="matrix(-6.0596109,0,0,6.375032,123.12108,-253.37147)" gradientUnits="userSpaceOnUse" xlink:href="#linearGradient3999-1-7-3"/><filter id="filter4737"><feGaussianBlur id="feGaussianBlur4739" stdDeviation=".488"/></filter><filter id="filter11490-5-0-1" width="1.214" height="3.703" x="-.107" y="-1.352" color-interpolation-filters="sRGB"><feGaussianBlur id="feGaussianBlur11492-5-8-8" stdDeviation="1.83"/></filter><filter id="filter11472-2-8-7" width="1.104" height="2.311" x="-.052" y="-.655" color-interpolation-filters="sRGB"><feGaussianBlur id="feGaussianBlur11474-3-4-0" stdDeviation=".887"/></filter></defs><metadata id="metadata2990"/><g id="layer1" transform="translate(0,-16)"><g id="g3990"><rect id="rect11476" width="41.125" height="3.25" x="3.438" y="51.606" fill="#000" fill-opacity="1" fill-rule="nonzero" stroke="none" stroke-width="1" color="#000" display="inline" enable-background="accumulate" filter="url(#filter11490-5-0-1)" overflow="visible" rx="1.763" ry="1.625" transform="matrix(0.9216359,0,0,1,2.4807384,-0.24883795)" visibility="visible" style="marker:none"/><rect id="rect11446" width="41.125" height="3.25" x="4.437" y="51.731" fill="#000" fill-opacity="1" fill-rule="nonzero" stroke="none" stroke-width="1" color="#000" display="inline" enable-background="accumulate" filter="url(#filter11472-2-8-7)" overflow="visible" rx="1.756" ry="1.525" transform="matrix(0.92541589,0,0,1.0652463,1.4646861,-3.8551008)" visibility="visible" style="marker:none"/></g><rect id="rect10522" width="235.5" height="187" x="31.815" y="49.529" fill="#000" fill-opacity="1" fill-rule="nonzero" stroke="none" stroke-width="2" color="#000" display="inline" enable-background="accumulate" filter="url(#filter11507)" opacity=".556" overflow="visible" rx="10.54" ry="10.788" transform="matrix(0.17026392,2.3308569e-4,-2.3857596e-4,0.16634569,-1.4313965,13.672808)" visibility="visible" style="marker:none"/><path id="rect10524" fill="url(#linearGradient4020)" fill-opacity="1" fill-rule="nonzero" stroke="none" stroke-width="2" d="m 5.84375,21.999998 c -0.994202,-0.0014 -1.811116,0.787048 -1.8125,1.78125 L 4,52.156248 c -0.0014,0.994202 0.787048,1.779847 1.78125,1.78125 l 36.375,0.0625 c 0.994202,0.0014 1.811116,-0.787048 1.8125,-1.78125 L 44,23.843748 c 0.0014,-0.994202 -0.787048,-1.779847 -1.78125,-1.78125 l -36.375,-0.0625 z m 1.5625,2.5 33.21875,0.0625 c 0.483082,6.84e-4 0.875674,0.389018 0.875,0.875 l -0.03125,21.1875 c -6.74e-4,0.485982 -0.391918,0.875684 -0.875,0.875 L 7.375,47.437498 C 6.891918,47.436814 6.499326,47.04848 6.5,46.562498 l 0.03125,-21.1875 c 6.74e-4,-0.485982 0.391918,-0.875684 0.875,-0.875 z" color="#000" display="inline" enable-background="accumulate" overflow="visible" visibility="visible" style="marker:none"/><path id="rect10528" fill="#000" fill-opacity="1" fill-rule="nonzero" stroke="none" stroke-width="2" d="m 7.262317,24.004279 c -0.675892,-9.51e-4 -1.217973,0.443676 -1.21875,1 l -0.03125,21.4375 c -7.77e-4,0.556323 0.542858,0.99905 1.21875,1 l 0.125,0 c -0.483082,-6.84e-4 -0.844424,-0.389018 -0.84375,-0.875 l 0.03125,-21.1875 c 6.74e-4,-0.485982 0.360668,-0.875684 0.84375,-0.875 l 33.25,0.03125 c 0.483082,6.84e-4 0.875674,0.389018 0.875,0.875 l -0.03125,21.21875 c -6.74e-4,0.485982 -0.391918,0.875684 -0.875,0.875 l 0.15625,0 c 0.675892,9.5e-4 1.217973,-0.443677 1.21875,-1 l 0.03125,-21.4375 c 7.77e-4,-0.556324 -0.542858,-1.030299 -1.21875,-1.03125 l -33.53125,-0.03125 z" color="#000" display="inline" enable-background="accumulate" opacity=".4" overflow="visible" visibility="visible" style="marker:none"/><rect id="rect10538" width="34.971" height="22.953" x="6.565" y="24.489" fill="url(#radialGradient4115)" fill-opacity="1" fill-rule="nonzero" stroke="none" stroke-width="2" color="#000" display="inline" enable-background="accumulate" overflow="visible" rx=".872" ry=".877" transform="matrix(0.999999,0.00141561,-0.00138697,0.99999904,0,0)" visibility="visible" style="marker:none"/><path id="rect3818" fill="#8100ff" fill-opacity="0" stroke="none" stroke-width="2" d="m 11.9375,27.5 c -1,0 -1,1 -1,1 l 0,6 c 0,1 1,1 1,1 l 9,0 c 1,0 1,-1 1,-1 l 0,-6 c 0,0 0,-1 -1,-1 z m 0,2 9,0 0,5 -9,0 z" baseline-shift="baseline" color="#000" direction="ltr" display="inline" enable-background="accumulate" font-family="Sans" font-size="medium" font-stretch="normal" font-style="normal" font-variant="normal" font-weight="normal" letter-spacing="normal" overflow="visible" text-anchor="start" text-decoration="none" visibility="visible" word-spacing="normal" writing-mode="lr-tb" style="text-indent:0;text-align:start;line-height:normal;text-transform:none;block-progression:tb;marker:none;-inkscape-font-specification:Sans"/><path id="rect3822" fill="#fff" fill-opacity="1" fill-rule="nonzero" stroke="none" stroke-width="2" d="m 13,27 c -1.090703,0 -2,0.909297 -2,2 l 0,15 c 0,1.090703 0.909297,2 2,2 l 22,0 c 1.090703,0 2,-0.909297 2,-2 l 0,-15 c 0,-1.090703 -0.909297,-2 -2,-2 z" baseline-shift="baseline" color="#000" direction="ltr" display="inline" enable-background="accumulate" font-family="Sans" font-size="medium" font-stretch="normal" font-style="normal" font-variant="normal" font-weight="normal" letter-spacing="normal" opacity=".5" overflow="visible" text-anchor="start" text-decoration="none" visibility="visible" word-spacing="normal" writing-mode="lr-tb" style="text-indent:0;text-align:start;line-height:normal;text-transform:none;block-progression:tb;marker:none;-inkscape-font-specification:Sans"/><path font-size="medium" style="text-indent:0;text-align:start;line-height:normal;text-transform:none;block-progression:tb;marker:none;-inkscape-font-specification:Sans" id="path3918" fill="#333" fill-opacity="1" stroke="none" stroke-width="2" d="m 12,27 c -1,0 -1,1 -1,1 l 0,17 c 0,1 1,1 1,1 l 24,0 c 1,0 1,-1 1,-1 l 0,-17 c 0,0 0,-1 -1,-1 z m 0,3 24,0 0,15 -24,0 z" baseline-shift="baseline" color="#000" direction="ltr" display="inline" enable-background="accumulate" filter="url(#filter3920)" font-family="Sans" font-stretch="normal" font-style="normal" font-variant="normal" font-weight="normal" letter-spacing="normal" overflow="visible" text-anchor="start" text-decoration="none" visibility="visible" word-spacing="normal" writing-mode="lr-tb"/><g id="g3482" fill="#000" fill-opacity="1" transform="translate(42.46875,-2)"><path id="path4144" fill="#000" fill-opacity="1" fill-rule="nonzero" stroke="none" d="m -13.71875,4 0.03125,0.0625 -0.625,0 -0.34375,0.59375 -0.4375,0.46875 -0.75,0.15625 0.4375,0.46875 0.125,0.4375 -0.5625,0 -0.75,0.40625 0,1.15625 0.34375,0 0.3125,0.34375 0.71875,-0.34375 0.28125,-0.71875 0.5,-0.3125 0.125,-0.28125 L -13.46875,6.25 -13,6.78125 l 0.5,0.25 -0.28125,0.5625 0.46875,-0.125 0.21875,-0.5625 -0.5625,-0.65625 0.21875,0 0.5625,0.46875 0.125,0.625 0.5,0.59375 0.125,-0.84375 0.28125,-0.125 c 0.28093,0.291639 0.482141,0.64053 0.71875,0.96875 L -9.25,8 -8.75,8.3125 -8.96875,8.625 -9.5,9.09375 l -0.71875,0 -0.96875,-0.3125 -0.5,0.0625 L -12.0625,9.25 -13.125,8.1875 -13.875,8 l -1.0625,0.125 -0.96875,0.25 C -16.448255,8.989465 -16.986994,9.61185 -17.5,10.25 l -0.625,1.46875 0.28125,0.3125 -0.5,0.78125 0.5625,1.34375 c 0.483146,0.546539 0.955057,1.10932 1.4375,1.65625 l 0.71875,-0.625 0.3125,0.375 0.78125,-0.5 0.25,0.28125 0.75,0 0.4375,0.5 -0.25,0.90625 0.53125,0.59375 -0.03125,1.0625 0.3125,0.59375 4.90625,0 0,-1.34375 0.53125,-1.09375 0.625,-0.71875 0,-2.0625 c -0.1031353,0.01013 -0.2092217,0.02364 -0.3125,0.03125 l 0.3125,-0.3125 0,-9.5 -6.0625,0 L -12.625,4.0625 -12.90625,4 z m 4.8125,5.875 0.65625,0.71875 0.75,1.65625 0.46875,0.5 -0.25,0.59375 0.4375,0.46875 c -0.1994856,0.01353 -0.3886292,0.03125 -0.59375,0.03125 -0.3618319,-0.760324 -0.6307137,-1.517079 -0.90625,-2.3125 l -0.5,-0.53125 -0.25,-0.9375 z" opacity=".6" transform="translate(0,28)"/><g id="g4162" fill="#000" fill-opacity="1" fill-rule="nonzero" stroke="none" opacity=".6" transform="matrix(0.78166322,0,0,0.78166322,-38.223638,22.278762)"><g id="g4166" fill="#000" fill-opacity="1"><path id="path4168" fill="#000" fill-opacity="1" d="m 28.833,12.7749 -0.291,-0.7412 -0.5098,0.165 0.1465,0.9043 0.6543,-0.3281"/></g></g><g id="g4170" fill="#000" fill-opacity="1" fill-rule="nonzero" stroke="none" opacity=".6" transform="matrix(0.78166322,0,0,0.78166322,-38.223638,22.278762)"><g id="g4174" fill="#000" fill-opacity="1"><path id="path4176" fill="#000" fill-opacity="1" d="m 29.123,12.6089 -0.1455,0.9883 0.7998,-0.165 0.5811,-0.5752 -0.5088,-0.4941 C 29.6787,11.9078 29.4824,11.483 29.2685,11.0465 l -0.4355,0 0,0.4932 0.29,0.3291 0,0.7402"/></g></g><path id="path4184" fill="#000" fill-opacity="1" fill-rule="nonzero" stroke="none" d="m -30.46875,4 0,5.46875 0.8125,0.1875 0.625,0.78125 0.09375,-1.28125 1.09375,-0.90625 0.40625,-0.96875 0.78125,-0.3125 0.46875,-0.65625 1,-0.1875 0.53125,-0.78125 -1.53125,0 0.96875,-0.4375 0.65625,0 0.96875,-0.3125 0.125,-0.40625 L -23.6875,4 -27.03125,4 -27.34375,4.65625 -27.46875,4 z m 0.53125,8.875 -0.53125,0.0625 0,1.21875 0.125,0.15625 0.78125,0.5625 0.46875,-0.0625 0.34375,0.15625 0,0.09375 -0.46875,1.21875 -0.34375,0.53125 0.125,0.25 -0.28125,0.96875 0.53125,0.96875 7.8125,0 0.1875,-0.25 0.09375,-0.96875 c -0.932837,-0.462588 -1.85537,-0.961233 -2.78125,-1.4375 l -0.4375,-0.875 -0.875,-0.21875 -0.4375,-1.21875 -1.15625,0.125 -0.9375,-0.6875 -1.03125,0.90625 0,0.125 c -0.309539,-0.08934 -0.693135,-0.111786 -0.96875,-0.28125 l -0.21875,-0.625 z" opacity=".6" transform="translate(0,28)"/><g id="g4230" fill="#000" fill-opacity="1" fill-rule="nonzero" stroke="none" opacity=".6" transform="matrix(0.78166322,0,0,0.78166322,-38.223638,22.278762)"><g id="g4234" fill="#000" fill-opacity="1"><path id="path4236" fill="#000" fill-opacity="1" d="m 18.7285,14.6665 0.4365,-0.6582 -0.6548,-0.4932 0.2183,1.1514"/></g></g></g><g id="g4713" filter="url(#filter4737)"><path id="path4715" fill="url(#radialGradient4700)" fill-rule="evenodd" stroke="none" d="m 33.968753,45 c -0.03476,-0.07214 -0.05805,-0.146354 -0.09375,-0.21875 -0.948495,-1.923301 -2.215851,-3.893496 -3.875,-5.75 -0.284239,-0.318241 -0.600778,-0.629541 -0.90625,-0.9375 -1.858554,-1.873696 -3.895651,-3.363623 -5.90625,-4.46875 -2.010599,-1.105128 -3.983242,-1.835965 -5.65625,-2.3125 -1.673007,-0.476535 -3.063213,-0.709864 -4.031249,-0.84375 -0.968037,-0.133887 -1.501582,-0.171732 -1.5,-0.21875 0.0016,-0.04702 0.54497,-0.11629 1.53125,-0.0625 0.986279,0.05378 2.404469,0.231128 4.124999,0.65625 1.720531,0.425121 3.736713,1.117497 5.8125,2.21875 2.075788,1.101253 4.214242,2.605422 6.125,4.53125 0.314051,0.316528 0.614598,0.640897 0.90625,0.96875 1.700738,1.912955 2.999696,3.983469 3.9375,5.96875 0.07414,0.156943 0.117626,0.313185 0.1875,0.46875 z"/><path id="path4717" fill="url(#radialGradient4697)" fill-rule="evenodd" stroke="none" d="m 12.000004,38.375 0,-1.46875 c 0.217325,-0.474351 0.452242,-0.955184 0.71875,-1.4375 C 13.760321,33.583761 15.198339,31.67022 17.000003,30 l 1.0625,0 c -2.025788,1.731825 -3.626968,3.729276 -4.781249,5.75 -0.504301,0.882845 -0.929605,1.771523 -1.28125,2.625 z"/><path id="path4719" fill="url(#radialGradient4694)" fill-rule="evenodd" stroke="none" d="m 31.281253,44.5625 c -2.222955,-0.01896 -4.678658,-0.242984 -7.1875,-0.78125 -1.099161,-0.235822 -2.136206,-0.521979 -3.15625,-0.84375 -2.072925,-0.654048 -3.99129,-1.46654 -5.624999,-2.3125 -1.287259,-0.666561 -2.351015,-1.351685 -3.3125,-2 l 0,-0.53125 c 1.030473,0.648235 2.208727,1.320319 3.59375,2 1.625305,0.797597 3.492394,1.59035 5.531249,2.21875 1.002964,0.309197 2.046321,0.581093 3.125,0.8125 2.462092,0.528188 4.877485,0.759645 7.0625,0.8125 1.74069,0.0421 3.276792,-0.04801 4.6875,-0.1875 l 0,0.53125 c -1.405806,0.179715 -2.984845,0.29604 -4.71875,0.28125 z"/><path id="path4721" fill="url(#radialGradient4691)" fill-rule="evenodd" stroke="none" d="m 18.968753,45 c -0.430688,-2.169749 -0.602897,-4.572889 -0.3125,-7.0625 0.230406,-1.975304 0.747214,-3.870611 1.40625,-5.5625 0.330002,-0.846737 0.695333,-1.628521 1.09375,-2.375 l 0.6875,0 c -0.431281,0.811372 -0.83692,1.666143 -1.1875,2.59375 -0.623337,1.648383 -1.088941,3.488751 -1.3125,5.40625 -0.287459,2.465587 -0.129078,4.846471 0.28125,7 z"/><path id="path4723" fill="url(#radialGradient4704)" fill-rule="evenodd" stroke="none" d="m 32.652165,30 c 0.430688,2.169749 0.337732,5.235802 0.04734,7.725413 -0.230406,1.975304 -0.747214,3.207698 -1.40625,4.899587 -0.330002,0.846737 -0.695333,1.628521 -1.09375,2.375 l -0.6875,0 c 0.431281,-0.811372 0.83692,-1.666143 1.1875,-2.59375 C 31.322837,40.757867 31.788441,38.917499 32.012,37 32.299459,34.534413 32.410328,32.153529 32,30 z"/></g><path id="rect3818-4" fill="#333" fill-opacity="1" stroke="none" stroke-width="2" d="m 12,27 c -1,0 -1,1 -1,1 l 0,17 c 0,1 1,1 1,1 l 24,0 c 1,0 1,-1 1,-1 l 0,-17 c 0,0 0,-1 -1,-1 z m 0,3 24,0 0,15 -24,0 z" baseline-shift="baseline" color="#000" direction="ltr" display="inline" enable-background="accumulate" font-family="Sans" font-size="medium" font-stretch="normal" font-style="normal" font-variant="normal" font-weight="normal" letter-spacing="normal" overflow="visible" text-anchor="start" text-decoration="none" visibility="visible" word-spacing="normal" writing-mode="lr-tb" style="text-indent:0;text-align:start;line-height:normal;text-transform:none;block-progression:tb;marker:none;-inkscape-font-specification:Sans"/><g id="g4039" transform="translate(-1,-0.99999999)"><path id="path3979" fill="#dd4814" fill-opacity="1" stroke="none" d="M 60,20.5 C 60,21.880712 58.880712,23 57.5,23 56.119288,23 55,21.880712 55,20.5 55,19.119288 56.119288,18 57.5,18 c 1.380712,0 2.5,1.119288 2.5,2.5 z" transform="matrix(0.2,0,0,0.2,2,25.4)"/><path id="path4005" fill="#777" fill-opacity="1" stroke="none" d="M 60,20.5 C 60,21.880712 58.880712,23 57.5,23 56.119288,23 55,21.880712 55,20.5 55,19.119288 56.119288,18 57.5,18 c 1.380712,0 2.5,1.119288 2.5,2.5 z" transform="matrix(0.2,0,0,0.2,3,25.4)"/><path id="path4007" fill="#777" fill-opacity="1" stroke="none" d="M 60,20.5 C 60,21.880712 58.880712,23 57.5,23 56.119288,23 55,21.880712 55,20.5 55,19.119288 56.119288,18 57.5,18 c 1.380712,0 2.5,1.119288 2.5,2.5 z" transform="matrix(0.2,0,0,0.2,4,25.4)"/><path id="path4009" fill="#777" fill-opacity="1" stroke="none" d="M 60,20.5 C 60,21.880712 58.880712,23 57.5,23 56.119288,23 55,21.880712 55,20.5 55,19.119288 56.119288,18 57.5,18 c 1.380712,0 2.5,1.119288 2.5,2.5 z" filter="url(#filter4015)" transform="matrix(0.2,0,0,0.2,3,25.4)"/><path id="path4019" fill="#777" fill-opacity="1" stroke="none" d="M 60,20.5 C 60,21.880712 58.880712,23 57.5,23 56.119288,23 55,21.880712 55,20.5 55,19.119288 56.119288,18 57.5,18 c 1.380712,0 2.5,1.119288 2.5,2.5 z" filter="url(#filter4025)" transform="matrix(0.2,0,0,0.2,4,25.4)"/><path id="path4029" fill="#dd4814" fill-opacity="1" stroke="none" d="M 60,20.5 C 60,21.880712 58.880712,23 57.5,23 56.119288,23 55,21.880712 55,20.5 55,19.119288 56.119288,18 57.5,18 c 1.380712,0 2.5,1.119288 2.5,2.5 z" filter="url(#filter4035)" transform="matrix(0.2,0,0,0.2,2,25.4)"/></g><rect id="rect4189" width="16.705" height="23.776" x="6.718" y="7.253" fill="none" fill-opacity="1" stroke="none" rx=".872" ry=".877" transform="translate(0,16)"/><path id="path10592" fill="url(#radialGradient3404)" fill-opacity="1" stroke="none" d="m 20.779029,25.016466 6,0 -4.486155,15.605426 -2.960354,-0.160917 z" display="inline" enable-background="new" opacity=".3"/><path id="path10590" fill="url(#radialGradient3407)" fill-opacity="1" stroke="none" d="M 30.115007,25.07117 40.895026,25 41,45.90916 21,46 z" display="inline" enable-background="new" opacity=".3"/><g id="g4706"><path id="path4688" fill="url(#radialGradient4700)" fill-rule="evenodd" stroke="none" d="m 33.968753,45 c -0.03476,-0.07214 -0.05805,-0.146354 -0.09375,-0.21875 -0.948495,-1.923301 -2.215851,-3.893496 -3.875,-5.75 -0.284239,-0.318241 -0.600778,-0.629541 -0.90625,-0.9375 -1.858554,-1.873696 -3.895651,-3.363623 -5.90625,-4.46875 -2.010599,-1.105128 -3.983242,-1.835965 -5.65625,-2.3125 -1.673007,-0.476535 -3.063213,-0.709864 -4.031249,-0.84375 -0.968037,-0.133887 -1.501582,-0.171732 -1.5,-0.21875 0.0016,-0.04702 0.54497,-0.11629 1.53125,-0.0625 0.986279,0.05378 2.404469,0.231128 4.124999,0.65625 1.720531,0.425121 3.736713,1.117497 5.8125,2.21875 2.075788,1.101253 4.214242,2.605422 6.125,4.53125 0.314051,0.316528 0.614598,0.640897 0.90625,0.96875 1.700738,1.912955 2.999696,3.983469 3.9375,5.96875 0.07414,0.156943 0.117626,0.313185 0.1875,0.46875 z"/><path id="path4696" fill="url(#radialGradient4697)" fill-rule="evenodd" stroke="none" d="m 12.000004,38.375 0,-1.46875 c 0.217325,-0.474351 0.452242,-0.955184 0.71875,-1.4375 C 13.760321,33.583761 15.198339,31.67022 17.000003,30 l 1.0625,0 c -2.025788,1.731825 -3.626968,3.729276 -4.781249,5.75 -0.504301,0.882845 -0.929605,1.771523 -1.28125,2.625 z"/><path id="path4704" fill="url(#radialGradient4694)" fill-rule="evenodd" stroke="none" d="m 31.281253,44.5625 c -2.222955,-0.01896 -4.678658,-0.242984 -7.1875,-0.78125 -1.099161,-0.235822 -2.136206,-0.521979 -3.15625,-0.84375 -2.072925,-0.654048 -3.99129,-1.46654 -5.624999,-2.3125 -1.287259,-0.666561 -2.351015,-1.351685 -3.3125,-2 l 0,-0.53125 c 1.030473,0.648235 2.208727,1.320319 3.59375,2 1.625305,0.797597 3.492394,1.59035 5.531249,2.21875 1.002964,0.309197 2.046321,0.581093 3.125,0.8125 2.462092,0.528188 4.877485,0.759645 7.0625,0.8125 1.74069,0.0421 3.276792,-0.04801 4.6875,-0.1875 l 0,0.53125 c -1.405806,0.179715 -2.984845,0.29604 -4.71875,0.28125 z"/><path id="path4712" fill="url(#radialGradient4691)" fill-rule="evenodd" stroke="none" d="m 18.968753,45 c -0.430688,-2.169749 -0.602897,-4.572889 -0.3125,-7.0625 0.230406,-1.975304 0.747214,-3.870611 1.40625,-5.5625 0.330002,-0.846737 0.695333,-1.628521 1.09375,-2.375 l 0.6875,0 c -0.431281,0.811372 -0.83692,1.666143 -1.1875,2.59375 -0.623337,1.648383 -1.088941,3.488751 -1.3125,5.40625 -0.287459,2.465587 -0.129078,4.846471 0.28125,7 z"/><path id="path4702" fill="url(#radialGradient4704)" fill-rule="evenodd" stroke="none" d="m 32.652165,30 c 0.430688,2.169749 0.337732,5.235802 0.04734,7.725413 -0.230406,1.975304 -0.747214,3.207698 -1.40625,4.899587 -0.330002,0.846737 -0.695333,1.628521 -1.09375,2.375 l -0.6875,0 c 0.431281,-0.811372 0.83692,-1.666143 1.1875,-2.59375 C 31.322837,40.757867 31.788441,38.917499 32.012,37 32.299459,34.534413 32.410328,32.153529 32,30 z"/></g></g></svg>