<svg xmlns="http://www.w3.org/2000/svg" xmlns:svg="http://www.w3.org/2000/svg" xmlns:xlink="http://www.w3.org/1999/xlink" id="svg2985" width="48" height="48" version="1.1"><defs id="defs2987"><linearGradient id="linearGradient4195"><stop id="stop4197" offset="0" stop-color="#df5e28" stop-opacity=".941"/><stop id="stop4199" offset="1" stop-color="#1a1716" stop-opacity=".941"/></linearGradient><filter id="filter11507" color-interpolation-filters="sRGB"><feGaussianBlur id="feGaussianBlur11509" stdDeviation="1.056"/></filter><linearGradient id="linearGradient10954"><stop id="stop10956" offset="0" stop-color="#909090" stop-opacity="1"/><stop id="stop10958" offset="1" stop-color="#cecece" stop-opacity="1"/></linearGradient><linearGradient id="linearGradient10938"><stop id="stop10940" offset="0" stop-color="#dadada" stop-opacity="1"/><stop id="stop10942" offset="1" stop-color="#f6f6f5" stop-opacity="1"/></linearGradient><linearGradient id="linearGradient11438"><stop id="stop11440" offset="0" stop-color="#babdb6" stop-opacity="1"/><stop id="stop11442" offset="1" stop-color="#4a4d46" stop-opacity="1"/></linearGradient><linearGradient id="linearGradient10966"><stop id="stop10968" offset="0" stop-color="#fff" stop-opacity="1"/><stop id="stop10970" offset="1" stop-color="#f0f0f0" stop-opacity="1"/></linearGradient><linearGradient id="linearGradient11473"><stop id="stop11475" offset="0" stop-color="#e5c42c" stop-opacity="1"/><stop id="stop4546" offset="1" stop-color="#726216" stop-opacity="1"/></linearGradient><linearGradient id="linearGradient4788"><stop id="stop4790" offset="0" stop-color="#fff" stop-opacity="1"/><stop id="stop4792" offset="1" stop-color="#fff" stop-opacity="0"/></linearGradient><radialGradient id="radialGradient12777" cx="144.167" cy="129.174" r="97.906" fx="144.167" fy="129.174" gradientTransform="matrix(1.1657896,-0.05054328,0.0329754,0.74679303,-28.160936,39.99441)" gradientUnits="userSpaceOnUse" xlink:href="#linearGradient12771"/><linearGradient id="linearGradient12771"><stop id="stop12773" offset="0" stop-color="#fff" stop-opacity="1"/><stop id="stop12775" offset="1" stop-color="#fff" stop-opacity="0"/></linearGradient><radialGradient id="radialGradient3521" cx="144.167" cy="129.174" r="97.906" fx="144.167" fy="129.174" gradientTransform="matrix(1.1657896,-0.05054328,0.0329754,0.74679303,-28.160936,39.99441)" gradientUnits="userSpaceOnUse" xlink:href="#linearGradient12771"/><radialGradient id="radialGradient3529" cx="144.167" cy="129.174" r="97.906" fx="144.167" fy="129.174" gradientTransform="matrix(1.1657896,-0.05054328,0.0329754,0.74679303,-28.160936,39.99441)" gradientUnits="userSpaceOnUse" xlink:href="#linearGradient12771"/><radialGradient id="radialGradient3537" cx="144.167" cy="129.174" r="97.906" fx="144.167" fy="129.174" gradientTransform="matrix(1.1657896,-0.05054328,0.0329754,0.74679303,-28.160936,39.99441)" gradientUnits="userSpaceOnUse" xlink:href="#linearGradient12771"/><radialGradient id="radialGradient3545" cx="144.167" cy="129.174" r="97.906" fx="144.167" fy="129.174" gradientTransform="matrix(1.1657896,-0.05054328,0.0329754,0.74679303,-28.160936,39.99441)" gradientUnits="userSpaceOnUse" xlink:href="#linearGradient12771"/><radialGradient id="radialGradient3553" cx="144.167" cy="129.174" r="97.906" fx="144.167" fy="129.174" gradientTransform="matrix(1.1657896,-0.05054328,0.0329754,0.74679303,-28.160936,39.99441)" gradientUnits="userSpaceOnUse" xlink:href="#linearGradient12771"/><radialGradient id="radialGradient3561" cx="144.167" cy="129.174" r="97.906" fx="144.167" fy="129.174" gradientTransform="matrix(1.1657896,-0.05054328,0.0329754,0.74679303,-28.160936,39.99441)" gradientUnits="userSpaceOnUse" xlink:href="#linearGradient12771"/><radialGradient id="radialGradient3569" cx="144.167" cy="129.174" r="97.906" fx="144.167" fy="129.174" gradientTransform="matrix(1.1657896,-0.05054328,0.0329754,0.74679303,-28.160936,39.99441)" gradientUnits="userSpaceOnUse" xlink:href="#linearGradient12771"/><radialGradient id="radialGradient3577" cx="144.167" cy="129.174" r="97.906" fx="144.167" fy="129.174" gradientTransform="matrix(1.1657896,-0.05054328,0.0329754,0.74679303,-28.160936,39.99441)" gradientUnits="userSpaceOnUse" xlink:href="#linearGradient12771"/><radialGradient id="radialGradient3585" cx="144.167" cy="129.174" r="97.906" fx="144.167" fy="129.174" gradientTransform="matrix(1.1657896,-0.05054328,0.0329754,0.74679303,-28.160936,39.99441)" gradientUnits="userSpaceOnUse" xlink:href="#linearGradient12771"/><radialGradient id="radialGradient3593" cx="144.167" cy="129.174" r="97.906" fx="144.167" fy="129.174" gradientTransform="matrix(1.1657896,-0.05054328,0.0329754,0.74679303,-28.160936,39.99441)" gradientUnits="userSpaceOnUse" xlink:href="#linearGradient12771"/><radialGradient id="radialGradient3601" cx="144.167" cy="129.174" r="97.906" fx="144.167" fy="129.174" gradientTransform="matrix(1.1657896,-0.05054328,0.0329754,0.74679303,-28.160936,39.99441)" gradientUnits="userSpaceOnUse" xlink:href="#linearGradient12771"/><radialGradient id="radialGradient3665" cx="144.167" cy="129.174" r="97.906" fx="144.167" fy="129.174" gradientTransform="matrix(1.1657896,-0.05054328,0.0329754,0.74679303,-28.160936,39.99441)" gradientUnits="userSpaceOnUse" xlink:href="#linearGradient12771"/><radialGradient id="radialGradient3348" cx="149.565" cy="258.761" r="116.231" fx="149.565" fy="258.761" gradientTransform="matrix(0.17091321,2.3948575e-4,-1.885288e-4,0.1345469,-0.82414948,18.425831)" gradientUnits="userSpaceOnUse" xlink:href="#linearGradient10966"/><linearGradient id="linearGradient3355" x1="134.833" x2="171.903" y1="68.529" y2="206.876" gradientTransform="matrix(0.17601918,0,0,0.17980627,-1.587065,12.337364)" gradientUnits="userSpaceOnUse" xlink:href="#linearGradient10938"/><linearGradient id="linearGradient3357" x1="184.951" x2="185.071" y1="149.21" y2="236.397" gradientTransform="matrix(0.17980539,0,0,0.17980539,-0.63860179,10.853331)" gradientUnits="userSpaceOnUse" xlink:href="#linearGradient11438"/><radialGradient id="radialGradient3387" cx="144.167" cy="129.174" r="97.906" fx="144.167" fy="129.174" gradientTransform="matrix(1.1657896,-0.05054328,0.0329754,0.74679303,-28.160936,39.99441)" gradientUnits="userSpaceOnUse" xlink:href="#linearGradient12771"/><radialGradient id="radialGradient3404" cx="326.021" cy="58" r="12.5" fx="326.021" fy="58" gradientTransform="matrix(-1.8243761,0.00876531,-0.00620867,-1.3078007,609.52907,98.067298)" gradientUnits="userSpaceOnUse" xlink:href="#linearGradient4788"/><radialGradient id="radialGradient3407" cx="326.021" cy="58" r="12.5" fx="326.021" fy="58" gradientTransform="matrix(-1.8882016,0.00857771,-0.00642588,-1.2798107,636.86026,96.523354)" gradientUnits="userSpaceOnUse" xlink:href="#linearGradient4788"/><radialGradient id="radialGradient4014" cx="149.565" cy="190.137" r="108.515" fx="149.565" fy="190.137" gradientTransform="matrix(0.27084087,0,0,0.17776648,-16.458295,8.8402271)" gradientUnits="userSpaceOnUse" xlink:href="#linearGradient11473"/><linearGradient id="linearGradient4020" x1="141.315" x2="141.315" y1="237.286" y2="57.029" gradientTransform="matrix(0.16968376,2.3939518e-4,-2.3776336e-4,0.17084857,-1.344677,13.527818)" gradientUnits="userSpaceOnUse" xlink:href="#linearGradient10954"/><radialGradient id="radialGradient3889" cx="189.702" cy="230.104" r="108.515" fx="189.702" fy="230.104" gradientTransform="matrix(0.20312507,-0.08812329,0.12363256,0.3357866,-42.385541,-18.859714)" gradientUnits="userSpaceOnUse" xlink:href="#linearGradient4195-5"/><linearGradient id="linearGradient4195-5"><stop id="stop4197-5" offset="0" stop-color="#ff5200" stop-opacity="1"/><stop id="stop4199-9" offset="1" stop-color="#1a1716" stop-opacity=".941"/></linearGradient><filter id="filter11490-5-0" width="1.214" height="3.703" x="-.107" y="-1.352" color-interpolation-filters="sRGB"><feGaussianBlur id="feGaussianBlur11492-5-8" stdDeviation="1.83"/></filter><filter id="filter11472-2-8" width="1.104" height="2.311" x="-.052" y="-.655" color-interpolation-filters="sRGB"><feGaussianBlur id="feGaussianBlur11474-3-4" stdDeviation=".887"/></filter><filter id="filter4036"><feGaussianBlur id="feGaussianBlur4038" stdDeviation=".125"/></filter><filter id="filter4042"><feGaussianBlur id="feGaussianBlur4044" stdDeviation=".125"/></filter><filter id="filter4048"><feGaussianBlur id="feGaussianBlur4050" stdDeviation=".125"/></filter><filter id="filter4060"><feGaussianBlur id="feGaussianBlur4062" stdDeviation=".075"/></filter><filter id="filter11490-5-0-6" width="1.214" height="3.703" x="-.107" y="-1.352" color-interpolation-filters="sRGB"><feGaussianBlur id="feGaussianBlur11492-5-8-6" stdDeviation="1.83"/></filter><filter id="filter11472-2-8-9" width="1.104" height="2.311" x="-.052" y="-.655" color-interpolation-filters="sRGB"><feGaussianBlur id="feGaussianBlur11474-3-4-9" stdDeviation=".887"/></filter></defs><metadata id="metadata2990"/><g id="layer1" transform="translate(0,-16)"><g id="g3990"><rect id="rect11476" width="41.125" height="3.25" x="3.438" y="51.606" fill="#000" fill-opacity="1" fill-rule="nonzero" stroke="none" stroke-width="1" color="#000" display="inline" enable-background="accumulate" filter="url(#filter11490-5-0-6)" overflow="visible" rx="1.763" ry="1.625" transform="matrix(0.9216359,0,0,1,2.4807384,-0.24883795)" visibility="visible" style="marker:none"/><rect id="rect11446" width="41.125" height="3.25" x="4.437" y="51.731" fill="#000" fill-opacity="1" fill-rule="nonzero" stroke="none" stroke-width="1" color="#000" display="inline" enable-background="accumulate" filter="url(#filter11472-2-8-9)" overflow="visible" rx="1.756" ry="1.525" transform="matrix(0.92541589,0,0,1.0652463,1.4646861,-3.8551008)" visibility="visible" style="marker:none"/></g><rect id="rect10522" width="235.5" height="187" x="31.815" y="49.529" fill="#000" fill-opacity="1" fill-rule="nonzero" stroke="none" stroke-width="2" color="#000" display="inline" enable-background="accumulate" filter="url(#filter11507)" opacity=".556" overflow="visible" rx="10.54" ry="10.788" transform="matrix(0.17026392,2.3308569e-4,-2.3857596e-4,0.16634569,-1.4313965,13.672808)" visibility="visible" style="marker:none"/><rect id="rect10538" width="34.971" height="22.953" x="6.565" y="24.489" fill="url(#radialGradient4014)" fill-opacity="1" fill-rule="nonzero" stroke="none" stroke-width="2" color="#000" display="inline" enable-background="accumulate" overflow="visible" rx=".872" ry=".877" transform="matrix(0.999999,0.00141561,-0.00138697,0.99999904,0,0)" visibility="visible" style="marker:none"/><path id="rect10524" fill="url(#linearGradient4020)" fill-opacity="1" fill-rule="nonzero" stroke="none" stroke-width="2" d="m 5.84375,21.999998 c -0.994202,-0.0014 -1.811116,0.787048 -1.8125,1.78125 L 4,52.156248 c -0.0014,0.994202 0.787048,1.779847 1.78125,1.78125 l 36.375,0.0625 c 0.994202,0.0014 1.811116,-0.787048 1.8125,-1.78125 L 44,23.843748 c 0.0014,-0.994202 -0.787048,-1.779847 -1.78125,-1.78125 l -36.375,-0.0625 z m 1.5625,2.5 33.21875,0.0625 c 0.483082,6.84e-4 0.875674,0.389018 0.875,0.875 l -0.03125,21.1875 c -6.74e-4,0.485982 -0.391918,0.875684 -0.875,0.875 L 7.375,47.437498 C 6.891918,47.436814 6.499326,47.04848 6.5,46.562498 l 0.03125,-21.1875 c 6.74e-4,-0.485982 0.391918,-0.875684 0.875,-0.875 z" color="#000" display="inline" enable-background="accumulate" overflow="visible" visibility="visible" style="marker:none"/><path id="rect10528" fill="#000" fill-opacity="1" fill-rule="nonzero" stroke="none" stroke-width="2" d="m 7.262317,24.004279 c -0.675892,-9.51e-4 -1.217973,0.443676 -1.21875,1 l -0.03125,21.4375 c -7.77e-4,0.556323 0.542858,0.99905 1.21875,1 l 0.125,0 c -0.483082,-6.84e-4 -0.844424,-0.389018 -0.84375,-0.875 l 0.03125,-21.1875 c 6.74e-4,-0.485982 0.360668,-0.875684 0.84375,-0.875 l 33.25,0.03125 c 0.483082,6.84e-4 0.875674,0.389018 0.875,0.875 l -0.03125,21.21875 c -6.74e-4,0.485982 -0.391918,0.875684 -0.875,0.875 l 0.15625,0 c 0.675892,9.5e-4 1.217973,-0.443677 1.21875,-1 l 0.03125,-21.4375 c 7.77e-4,-0.556324 -0.542858,-1.030299 -1.21875,-1.03125 l -33.53125,-0.03125 z" color="#000" display="inline" enable-background="accumulate" opacity=".4" overflow="visible" visibility="visible" style="marker:none"/><rect id="rect4189" width="16.705" height="23.776" x="6.718" y="7.253" fill="none" fill-opacity="1" stroke="none" rx=".872" ry=".877" transform="translate(0,16)"/><path id="rect3917" fill="#e5c42c" fill-opacity="1" stroke="none" d="m 15,32 19,0 c 0.554,0 1,0.446 1,1 l 0,7 c 0,0.554 -0.446,1 -1,1 l -19,0 c -0.554,0 -1,-0.446 -1,-1 l 0,-7 c 0,-0.554 0.446,-1 1,-1 z"/><path id="path4014" fill="#000" fill-opacity="1" stroke="none" d="m 15.5,33 18,0 c 0,0 0.5,0 0.5,0.5 l 0,6 C 34,40 33.5,40 33.5,40 l -18,0 c 0,0 -0.5,0 -0.5,-0.5 l 0,-6 C 15,33 15.5,33 15.5,33 z" opacity=".5"/><path id="path4046" fill="#fff" fill-opacity="1" stroke="none" d="m 16,22.5 0,-4 C 16,18 16.5,18 16.5,18 l 4,0 c 0.5,0 0.5,0.5 0.5,0.5 l 0,4 C 21,23 20.5,23 20.5,23 l -4,0 c 0,0 -0.5,0 -0.5,-0.5 z" filter="url(#filter4048)" opacity=".5" transform="translate(0,16)"/><path id="path4020" fill="#fff" fill-opacity="1" stroke="none" d="m 16,22.5 0,-4 C 16,18 16.5,18 16.5,18 l 4,0 c 0.5,0 0.5,0.5 0.5,0.5 l 0,4 C 21,23 20.5,23 20.5,23 l -4,0 c 0,0 -0.5,0 -0.5,-0.5 z" opacity=".5" transform="translate(0,16)"/><path id="path4040" fill="#fff" fill-opacity="1" stroke="none" d="m 22,38.5 0,-4 C 22,34 22.5,34 22.5,34 l 4,0 c 0.5,0 0.5,0.5 0.5,0.5 l 0,4 C 27,39 26.5,39 26.5,39 l -4,0 c 0,0 -0.5,0 -0.5,-0.5 z" filter="url(#filter4042)" opacity=".5"/><path id="path4030" fill="#fff" fill-opacity="1" stroke="none" d="m 22,38.5 0,-4 C 22,34 22.5,34 22.5,34 l 4,0 c 0.5,0 0.5,0.5 0.5,0.5 l 0,4 C 27,39 26.5,39 26.5,39 l -4,0 c 0,0 -0.5,0 -0.5,-0.5 z" opacity=".8"/><path id="path4034" fill="#fff" fill-opacity="1" stroke="none" d="m 28,38.5 0,-4 C 28,34 28.5,34 28.5,34 l 4,0 c 0.5,0 0.5,0.5 0.5,0.5 l 0,4 C 33,39 32.5,39 32.5,39 l -4,0 c 0,0 -0.5,0 -0.5,-0.5 z" filter="url(#filter4036)" opacity=".5"/><path id="path4032" fill="#fff" fill-opacity="1" stroke="none" d="m 28,38.5 0,-4 C 28,34 28.5,34 28.5,34 l 4,0 c 0.5,0 0.5,0.5 0.5,0.5 l 0,4 C 33,39 32.5,39 32.5,39 l -4,0 c 0,0 -0.5,0 -0.5,-0.5 z" opacity=".5"/><path id="path10592" fill="url(#radialGradient3404)" fill-opacity="1" stroke="none" d="m 20.779029,25.016466 6,0 -4.486155,15.605426 -2.960354,-0.160917 z" display="inline" enable-background="new" opacity=".3"/><path id="path10590" fill="url(#radialGradient3407)" fill-opacity="1" stroke="none" d="M 30.115007,25.07117 40.895026,25 41,45.90916 21,46 z" display="inline" enable-background="new" opacity=".3"/><path id="path4054" fill="#dd4814" fill-opacity="1" stroke="none" d="m 23,21.75 0,-2.5 C 23,19 23.25,19 23.25,19 l 2.5,0 C 26,19 26,19.25 26,19.25 l 0,2.5 c 0,0 0,0.25 -0.25,0.25 l -2.5,0 c 0,0 -0.25,0 -0.25,-0.25 z" filter="url(#filter4060)" opacity="1" transform="translate(0,16)"/><path id="path4052" fill="#dd4814" fill-opacity="1" stroke="none" d="m 23,21.75 0,-2.5 C 23,19 23.25,19 23.25,19 l 2.5,0 C 26,19 26,19.25 26,19.25 l 0,2.5 c 0,0 0,0.25 -0.25,0.25 l -2.5,0 c 0,0 -0.25,0 -0.25,-0.25 z" opacity="1" transform="translate(0,16)"/><path id="path4066" fill="#000" fill-opacity="1" stroke="none" d="m 17,37.75 0,-2.5 C 17,35 17.25,35 17.25,35 l 2.5,0 C 20,35 20,35.25 20,35.25 l 0,2.5 c 0,0 0,0.25 -0.25,0.25 l -2.5,0 c 0,0 -0.25,0 -0.25,-0.25 z" filter="url(#filter4060)" opacity=".5"/><path id="path4068" fill="#000" fill-opacity="1" stroke="none" d="m 17,37.75 0,-2.5 C 17,35 17.25,35 17.25,35 l 2.5,0 C 20,35 20,35.25 20,35.25 l 0,2.5 c 0,0 0,0.25 -0.25,0.25 l -2.5,0 c 0,0 -0.25,0 -0.25,-0.25 z" opacity=".5"/><path id="path4070" fill="#000" fill-opacity="1" stroke="none" d="m 29,37.75 0,-2.5 C 29,35 29.25,35 29.25,35 l 2.5,0 C 32,35 32,35.25 32,35.25 l 0,2.5 c 0,0 0,0.25 -0.25,0.25 l -2.5,0 c 0,0 -0.25,0 -0.25,-0.25 z" filter="url(#filter4060)" opacity=".5"/><path id="path4072" fill="#000" fill-opacity="1" stroke="none" d="m 29,37.75 0,-2.5 C 29,35 29.25,35 29.25,35 l 2.5,0 C 32,35 32,35.25 32,35.25 l 0,2.5 c 0,0 0,0.25 -0.25,0.25 l -2.5,0 c 0,0 -0.25,0 -0.25,-0.25 z" opacity=".5"/></g></svg>