<svg xmlns="http://www.w3.org/2000/svg" xmlns:svg="http://www.w3.org/2000/svg" xmlns:xlink="http://www.w3.org/1999/xlink" id="svg2985" width="48" height="48" version="1.1"><defs id="defs2987"><linearGradient id="linearGradient4484"><stop id="stop4486" offset="0" stop-color="#bfb6b6" stop-opacity="1"/><stop id="stop4488" offset="1" stop-color="#7f7f7f" stop-opacity="1"/></linearGradient><linearGradient id="linearGradient4195"><stop id="stop4197" offset="0" stop-color="#df5e28" stop-opacity=".941"/><stop id="stop4199" offset="1" stop-color="#1a1716" stop-opacity=".941"/></linearGradient><linearGradient id="linearGradient10938"><stop id="stop10940" offset="0" stop-color="#dadada" stop-opacity="1"/><stop id="stop10942" offset="1" stop-color="#f6f6f5" stop-opacity="1"/></linearGradient><linearGradient id="linearGradient11438"><stop id="stop11440" offset="0" stop-color="#babdb6" stop-opacity="1"/><stop id="stop11442" offset="1" stop-color="#4a4d46" stop-opacity="1"/></linearGradient><linearGradient id="linearGradient10966"><stop id="stop10968" offset="0" stop-color="#fff" stop-opacity="1"/><stop id="stop10970" offset="1" stop-color="#f0f0f0" stop-opacity="1"/></linearGradient><linearGradient id="linearGradient11473"><stop id="stop4086" offset="0" stop-color="#333" stop-opacity="1"/><stop id="stop4084" offset="1" stop-color="#000" stop-opacity="1"/></linearGradient><radialGradient id="radialGradient12777" cx="144.167" cy="129.174" r="97.906" fx="144.167" fy="129.174" gradientTransform="matrix(1.1657896,-0.05054328,0.0329754,0.74679303,-28.160936,39.99441)" gradientUnits="userSpaceOnUse" xlink:href="#linearGradient12771"/><linearGradient id="linearGradient12771"><stop id="stop12773" offset="0" stop-color="#fff" stop-opacity="1"/><stop id="stop12775" offset="1" stop-color="#fff" stop-opacity="0"/></linearGradient><radialGradient id="radialGradient3521" cx="144.167" cy="129.174" r="97.906" fx="144.167" fy="129.174" gradientTransform="matrix(1.1657896,-0.05054328,0.0329754,0.74679303,-28.160936,39.99441)" gradientUnits="userSpaceOnUse" xlink:href="#linearGradient12771"/><radialGradient id="radialGradient3529" cx="144.167" cy="129.174" r="97.906" fx="144.167" fy="129.174" gradientTransform="matrix(1.1657896,-0.05054328,0.0329754,0.74679303,-28.160936,39.99441)" gradientUnits="userSpaceOnUse" xlink:href="#linearGradient12771"/><radialGradient id="radialGradient3537" cx="144.167" cy="129.174" r="97.906" fx="144.167" fy="129.174" gradientTransform="matrix(1.1657896,-0.05054328,0.0329754,0.74679303,-28.160936,39.99441)" gradientUnits="userSpaceOnUse" xlink:href="#linearGradient12771"/><radialGradient id="radialGradient3545" cx="144.167" cy="129.174" r="97.906" fx="144.167" fy="129.174" gradientTransform="matrix(1.1657896,-0.05054328,0.0329754,0.74679303,-28.160936,39.99441)" gradientUnits="userSpaceOnUse" xlink:href="#linearGradient12771"/><radialGradient id="radialGradient3553" cx="144.167" cy="129.174" r="97.906" fx="144.167" fy="129.174" gradientTransform="matrix(1.1657896,-0.05054328,0.0329754,0.74679303,-28.160936,39.99441)" gradientUnits="userSpaceOnUse" xlink:href="#linearGradient12771"/><radialGradient id="radialGradient3561" cx="144.167" cy="129.174" r="97.906" fx="144.167" fy="129.174" gradientTransform="matrix(1.1657896,-0.05054328,0.0329754,0.74679303,-28.160936,39.99441)" gradientUnits="userSpaceOnUse" xlink:href="#linearGradient12771"/><radialGradient id="radialGradient3569" cx="144.167" cy="129.174" r="97.906" fx="144.167" fy="129.174" gradientTransform="matrix(1.1657896,-0.05054328,0.0329754,0.74679303,-28.160936,39.99441)" gradientUnits="userSpaceOnUse" xlink:href="#linearGradient12771"/><radialGradient id="radialGradient3577" cx="144.167" cy="129.174" r="97.906" fx="144.167" fy="129.174" gradientTransform="matrix(1.1657896,-0.05054328,0.0329754,0.74679303,-28.160936,39.99441)" gradientUnits="userSpaceOnUse" xlink:href="#linearGradient12771"/><radialGradient id="radialGradient3585" cx="144.167" cy="129.174" r="97.906" fx="144.167" fy="129.174" gradientTransform="matrix(1.1657896,-0.05054328,0.0329754,0.74679303,-28.160936,39.99441)" gradientUnits="userSpaceOnUse" xlink:href="#linearGradient12771"/><radialGradient id="radialGradient3593" cx="144.167" cy="129.174" r="97.906" fx="144.167" fy="129.174" gradientTransform="matrix(1.1657896,-0.05054328,0.0329754,0.74679303,-28.160936,39.99441)" gradientUnits="userSpaceOnUse" xlink:href="#linearGradient12771"/><radialGradient id="radialGradient3601" cx="144.167" cy="129.174" r="97.906" fx="144.167" fy="129.174" gradientTransform="matrix(1.1657896,-0.05054328,0.0329754,0.74679303,-28.160936,39.99441)" gradientUnits="userSpaceOnUse" xlink:href="#linearGradient12771"/><radialGradient id="radialGradient3665" cx="144.167" cy="129.174" r="97.906" fx="144.167" fy="129.174" gradientTransform="matrix(1.1657896,-0.05054328,0.0329754,0.74679303,-28.160936,39.99441)" gradientUnits="userSpaceOnUse" xlink:href="#linearGradient12771"/><radialGradient id="radialGradient3348" cx="149.565" cy="258.761" r="116.231" fx="149.565" fy="258.761" gradientTransform="matrix(0.17091321,2.3948575e-4,-1.885288e-4,0.1345469,-0.82414948,18.425831)" gradientUnits="userSpaceOnUse" xlink:href="#linearGradient10966"/><linearGradient id="linearGradient3355" x1="134.833" x2="171.903" y1="68.529" y2="206.876" gradientTransform="matrix(0.17601918,0,0,0.17980627,-1.587065,12.337364)" gradientUnits="userSpaceOnUse" xlink:href="#linearGradient10938"/><linearGradient id="linearGradient3357" x1="184.951" x2="185.071" y1="149.21" y2="236.397" gradientTransform="matrix(0.17980539,0,0,0.17980539,-0.63860179,10.853331)" gradientUnits="userSpaceOnUse" xlink:href="#linearGradient11438"/><radialGradient id="radialGradient3387" cx="144.167" cy="129.174" r="97.906" fx="144.167" fy="129.174" gradientTransform="matrix(1.1657896,-0.05054328,0.0329754,0.74679303,-28.160936,39.99441)" gradientUnits="userSpaceOnUse" xlink:href="#linearGradient12771"/><radialGradient id="radialGradient3889" cx="189.702" cy="230.104" r="108.515" fx="189.702" fy="230.104" gradientTransform="matrix(0.20312507,-0.08812329,0.12363256,0.3357866,-42.385541,-18.859714)" gradientUnits="userSpaceOnUse" xlink:href="#linearGradient4195-5"/><linearGradient id="linearGradient4195-5"><stop id="stop4197-5" offset="0" stop-color="#ff5200" stop-opacity="1"/><stop id="stop4199-9" offset="1" stop-color="#1a1716" stop-opacity=".941"/></linearGradient><radialGradient id="radialGradient3099" cx="189.702" cy="230.104" r="108.515" fx="189.702" fy="230.104" gradientTransform="matrix(0.20312507,-0.08812329,0.12363256,0.3357866,-42.94693,-18.046408)" gradientUnits="userSpaceOnUse" xlink:href="#linearGradient4195-5"/><radialGradient id="radialGradient3407" cx="326.021" cy="58" r="12.5" fx="326.021" fy="58" gradientTransform="matrix(0.44957215,0.00204231,0.00152998,-0.30471707,-131.03052,54.029382)" gradientUnits="userSpaceOnUse" xlink:href="#linearGradient4788"/><linearGradient id="linearGradient4788"><stop id="stop4790" offset="0" stop-color="#fff" stop-opacity="1"/><stop id="stop4792" offset="1" stop-color="#fff" stop-opacity="0"/></linearGradient><radialGradient id="radialGradient3404" cx="326.021" cy="58" r="12.5" fx="326.021" fy="58" gradientTransform="matrix(-1.8243761,0.00876531,-0.00620867,-1.3078007,609.52907,98.067298)" gradientUnits="userSpaceOnUse" xlink:href="#linearGradient4788"/><radialGradient id="radialGradient3092" cx="326.021" cy="58" r="12.5" fx="326.021" fy="58" gradientTransform="matrix(-0.43437559,0.00208698,-0.00147825,-0.31138136,151.32309,54.396989)" gradientUnits="userSpaceOnUse" xlink:href="#linearGradient4788"/><radialGradient id="radialGradient4370" cx="326.021" cy="58" r="12.5" fx="326.021" fy="58" gradientTransform="matrix(-0.43437559,0.00208698,-0.00147825,-0.31138136,163.02309,54.896987)" gradientUnits="userSpaceOnUse" xlink:href="#linearGradient4788"/><radialGradient id="radialGradient4372" cx="326.021" cy="58" r="12.5" fx="326.021" fy="58" gradientTransform="matrix(-0.44957215,0.00204231,-0.00152998,-0.30471707,169.53052,54.52938)" gradientUnits="userSpaceOnUse" xlink:href="#linearGradient4788"/><radialGradient id="radialGradient4378" cx="326.021" cy="58" r="12.5" fx="326.021" fy="58" gradientTransform="matrix(-0.43437559,0.00208698,-0.00147825,-0.31138136,173.02309,54.896987)" gradientUnits="userSpaceOnUse" xlink:href="#linearGradient4788"/><radialGradient id="radialGradient4380" cx="326.021" cy="58" r="12.5" fx="326.021" fy="58" gradientTransform="matrix(-0.44957215,0.00204231,-0.00152998,-0.30471707,179.53052,54.52938)" gradientUnits="userSpaceOnUse" xlink:href="#linearGradient4788"/><radialGradient id="radialGradient4394" cx="14" cy="42.667" r="4" fx="14" fy="42.667" gradientTransform="matrix(2.25,2.3630469e-7,-1.312804e-7,1.2500002,-19.499995,-11.333348)" gradientUnits="userSpaceOnUse" xlink:href="#linearGradient11473"/><radialGradient id="radialGradient4396" cx="24" cy="42.667" r="4" fx="24" fy="42.667" gradientTransform="matrix(2.25,2.3630478e-7,-1.3128046e-7,1.2500003,-29.999995,-11.333354)" gradientUnits="userSpaceOnUse" xlink:href="#linearGradient11473"/><radialGradient id="radialGradient4398" cx="34" cy="42.667" r="4" fx="34" fy="42.667" gradientTransform="matrix(2.2500001,-8.3078572e-8,4.6154766e-8,1.2500002,-40.500004,-11.333342)" gradientUnits="userSpaceOnUse" xlink:href="#linearGradient11473"/><radialGradient id="radialGradient4456" cx="326.021" cy="58" r="12.5" fx="326.021" fy="58" gradientTransform="matrix(-0.43437559,0.00208698,-0.00147825,-0.31138136,163.32309,54.396989)" gradientUnits="userSpaceOnUse" xlink:href="#linearGradient4788"/><radialGradient id="radialGradient4458" cx="326.021" cy="58" r="12.5" fx="326.021" fy="58" gradientTransform="matrix(-0.44957215,0.00204231,-0.00152998,-0.30471707,169.83052,54.029382)" gradientUnits="userSpaceOnUse" xlink:href="#linearGradient4788"/><radialGradient id="radialGradient4464" cx="326.021" cy="58" r="12.5" fx="326.021" fy="58" gradientTransform="matrix(-0.43437559,0.00208698,-0.00147825,-0.31138136,175.32309,54.396989)" gradientUnits="userSpaceOnUse" xlink:href="#linearGradient4788"/><radialGradient id="radialGradient4466" cx="326.021" cy="58" r="12.5" fx="326.021" fy="58" gradientTransform="matrix(-0.44957215,0.00204231,-0.00152998,-0.30471707,181.83052,54.029382)" gradientUnits="userSpaceOnUse" xlink:href="#linearGradient4788"/><filter id="filter4472"><feGaussianBlur id="feGaussianBlur4474" stdDeviation=".17"/></filter><filter id="filter4476"><feGaussianBlur id="feGaussianBlur4478" stdDeviation=".17"/></filter><filter id="filter4480"><feGaussianBlur id="feGaussianBlur4482" stdDeviation=".17"/></filter><radialGradient id="radialGradient4496" cx="326.021" cy="58" r="12.5" fx="326.021" fy="58" gradientTransform="matrix(0.43437559,0.00208698,0.00147825,-0.31138136,-124.52309,54.396989)" gradientUnits="userSpaceOnUse" xlink:href="#linearGradient4788"/><linearGradient id="linearGradient4020" x1="141.315" x2="141.315" y1="237.286" y2="57.029" gradientTransform="matrix(0.16968376,2.3939518e-4,-2.3776336e-4,0.17084857,-1.344677,13.527818)" gradientUnits="userSpaceOnUse" xlink:href="#linearGradient10954"/><linearGradient id="linearGradient10954"><stop id="stop10956" offset="0" stop-color="#909090" stop-opacity="1"/><stop id="stop10958" offset="1" stop-color="#cecece" stop-opacity="1"/></linearGradient><filter id="filter11490-5-0-0" width="1.214" height="3.703" x="-.107" y="-1.352" color-interpolation-filters="sRGB"><feGaussianBlur id="feGaussianBlur11492-5-8-4" stdDeviation="1.83"/></filter><filter id="filter11472-2-8-3" width="1.104" height="2.311" x="-.052" y="-.655" color-interpolation-filters="sRGB"><feGaussianBlur id="feGaussianBlur11474-3-4-9" stdDeviation=".887"/></filter><linearGradient id="linearGradient3911" x1="141.315" x2="141.315" y1="237.286" y2="57.029" gradientTransform="matrix(0.16968376,2.3939518e-4,-2.3776336e-4,0.17084857,-1.3446769,15.527818)" gradientUnits="userSpaceOnUse" xlink:href="#linearGradient10954"/><filter id="filter3947"><feGaussianBlur id="feGaussianBlur3949" stdDeviation=".698"/></filter><filter id="filter4076"><feGaussianBlur id="feGaussianBlur4078" stdDeviation=".685"/></filter><filter id="filter4080"><feGaussianBlur id="feGaussianBlur4082" stdDeviation=".18"/></filter></defs><metadata id="metadata2990"/><g id="layer1" transform="translate(0,-16)"><path id="path3099" fill="#000" fill-opacity="1" fill-rule="nonzero" stroke="none" stroke-width="2" d="m 5.84375,23.999998 c -0.9942021,-0.0014 -1.811116,0.787048 -1.8125,1.78125 L 4,54.156248 c -0.0014,0.994202 0.7870479,1.779847 1.78125,1.78125 l 36.375,0.0625 c 0.994202,0.0014 1.811116,-0.787048 1.8125,-1.78125 L 44,25.843748 c 0.0014,-0.994202 -0.787048,-1.779847 -1.78125,-1.78125 l -36.375,-0.0625 z m 3.5,13 5.3125,0 c 0.62854,0 1.34375,0.690866 1.34375,1.3125 l 0,3.375 c 0,0.621634 -0.71521,1.3125 -1.34375,1.3125 l -5.3125,0 C 8.71521,42.999998 8,42.309132 8,41.687498 l 0,-3.375 c 0,-0.621634 0.71521,-1.3125 1.34375,-1.3125 z m 12,0 5.3125,0 c 0.62854,0 1.34375,0.690866 1.34375,1.3125 l 0,3.375 c 0,0.621634 -0.71521,1.3125 -1.34375,1.3125 l -5.3125,0 C 20.71521,42.999998 20,42.309132 20,41.687498 l 0,-3.375 c 0,-0.621634 0.71521,-1.3125 1.34375,-1.3125 z m 12,0 5.3125,0 c 0.62854,0 1.34375,0.690866 1.34375,1.3125 l 0,3.375 c 0,0.621634 -0.71521,1.3125 -1.34375,1.3125 l -5.3125,0 C 32.71521,42.999998 32,42.309132 32,41.687498 l 0,-3.375 c 0,-0.621634 0.71521,-1.3125 1.34375,-1.3125 z" color="#000" display="inline" enable-background="accumulate" filter="url(#filter4080)" opacity=".8" overflow="visible" visibility="visible" style="marker:none"/><g id="g3990" transform="translate(0,2)"><rect id="rect11476" width="41.125" height="3.25" x="3.438" y="51.606" fill="#000" fill-opacity="1" fill-rule="nonzero" stroke="none" stroke-width="1" color="#000" display="inline" enable-background="accumulate" filter="url(#filter11490-5-0-0)" overflow="visible" rx="1.763" ry="1.625" transform="matrix(0.9216359,0,0,1,2.4807384,-0.24883795)" visibility="visible" style="marker:none"/><rect id="rect11446" width="41.125" height="3.25" x="4.437" y="51.731" fill="#000" fill-opacity="1" fill-rule="nonzero" stroke="none" stroke-width="1" color="#000" display="inline" enable-background="accumulate" filter="url(#filter11472-2-8-3)" overflow="visible" rx="1.756" ry="1.525" transform="matrix(0.92541589,0,0,1.0652463,1.4646861,-3.8551008)" visibility="visible" style="marker:none"/></g><path id="path3012" fill="url(#radialGradient4394)" fill-opacity="1" stroke="none" d="m 8,41.681316 c 0,0.621634 0.704793,1.318682 1.333333,1.318682 1.333334,0 4,0 5.333333,0 0.62854,0 1.333334,-0.697048 1.333334,-1.318682 0,-1.318682 0,-2.043954 0,-3.362636 0,-0.621634 -0.704794,-1.318682 -1.333334,-1.318682 -1.333333,0 -3.999999,0 -5.333333,0 C 8.704793,36.999998 8,37.697046 8,38.31868 c 0,1.318682 0,2.043954 0,3.362636 z"/><path id="path4253" fill="url(#radialGradient4396)" fill-opacity="1" stroke="none" d="m 20,41.681316 c 0,0.621634 0.704793,1.318682 1.333333,1.318682 1.333334,0 4,0 5.333333,0 0.62854,0 1.333334,-0.697048 1.333334,-1.318682 0,-1.318682 0,-2.043954 0,-3.362636 0,-0.621634 -0.704794,-1.318682 -1.333334,-1.318682 -1.333333,0 -3.999999,0 -5.333333,0 -0.62854,0 -1.333333,0.697048 -1.333333,1.318682 0,1.318682 0,2.043954 0,3.362636 z"/><path id="path4249" fill="url(#radialGradient4398)" fill-opacity="1" stroke="none" d="m 32,41.681316 c 0,0.621634 0.704793,1.318682 1.333333,1.318682 1.333334,0 4,0 5.333333,0 0.62854,0 1.333334,-0.697048 1.333334,-1.318682 0,-1.318682 0,-2.043954 0,-3.362636 0,-0.621634 -0.704794,-1.318682 -1.333334,-1.318682 -1.333333,0 -3.999999,0 -5.333333,0 -0.62854,0 -1.333333,0.697048 -1.333333,1.318682 0,1.318682 0,2.043954 0,3.362636 z"/><path id="path3941" fill="#000" fill-opacity="1" fill-rule="nonzero" stroke="none" stroke-width="2" d="M 8,30 C 7.0057979,29.9986 6.188884,30.787048 6.1875,31.78125 l 0.03125,16.4375 C 6.21735,49.212952 7.0057979,49.998597 8,50 L 39.1875,49.78125 C 40.181702,49.78265 40.998616,48.994202 41,48 l 0,-16 c 0.0014,-0.994202 -0.787048,-1.779847 -1.78125,-1.78125 z m 1.34375,6.999998 5.3125,0 c 0.62854,0 1.34375,0.690866 1.34375,1.3125 l 0,3.375 c 0,0.621634 -0.71521,1.3125 -1.34375,1.3125 l -5.3125,0 C 8.71521,42.999998 8,42.309132 8,41.687498 l 0,-3.375 c 0,-0.621634 0.71521,-1.3125 1.34375,-1.3125 z m 12,0 5.3125,0 c 0.62854,0 1.34375,0.690866 1.34375,1.3125 l 0,3.375 c 0,0.621634 -0.71521,1.3125 -1.34375,1.3125 l -5.3125,0 C 20.71521,42.999998 20,42.309132 20,41.687498 l 0,-3.375 c 0,-0.621634 0.71521,-1.3125 1.34375,-1.3125 z m 12,0 5.3125,0 c 0.62854,0 1.34375,0.690866 1.34375,1.3125 l 0,3.375 c 0,0.621634 -0.71521,1.3125 -1.34375,1.3125 l -5.3125,0 C 32.71521,42.999998 32,42.309132 32,41.687498 l 0,-3.375 c 0,-0.621634 0.71521,-1.3125 1.34375,-1.3125 z" color="#000" display="inline" enable-background="accumulate" filter="url(#filter4076)" overflow="visible" visibility="visible" style="marker:none"/><path id="rect10524" fill="url(#linearGradient3911)" fill-opacity="1" fill-rule="nonzero" stroke="none" stroke-width="2" d="m 5.84375,23.999998 c -0.9942021,-0.0014 -1.811116,0.787048 -1.8125,1.78125 L 4,54.156248 c -0.0014,0.994202 0.7870479,1.779847 1.78125,1.78125 l 36.375,0.0625 c 0.994202,0.0014 1.811116,-0.787048 1.8125,-1.78125 L 44,25.843748 c 0.0014,-0.994202 -0.787048,-1.779847 -1.78125,-1.78125 l -36.375,-0.0625 z m 3.5,13 5.3125,0 c 0.62854,0 1.34375,0.690866 1.34375,1.3125 l 0,3.375 c 0,0.621634 -0.71521,1.3125 -1.34375,1.3125 l -5.3125,0 C 8.71521,42.999998 8,42.309132 8,41.687498 l 0,-3.375 c 0,-0.621634 0.71521,-1.3125 1.34375,-1.3125 z m 12,0 5.3125,0 c 0.62854,0 1.34375,0.690866 1.34375,1.3125 l 0,3.375 c 0,0.621634 -0.71521,1.3125 -1.34375,1.3125 l -5.3125,0 C 20.71521,42.999998 20,42.309132 20,41.687498 l 0,-3.375 c 0,-0.621634 0.71521,-1.3125 1.34375,-1.3125 z m 12,0 5.3125,0 c 0.62854,0 1.34375,0.690866 1.34375,1.3125 l 0,3.375 c 0,0.621634 -0.71521,1.3125 -1.34375,1.3125 l -5.3125,0 C 32.71521,42.999998 32,42.309132 32,41.687498 l 0,-3.375 c 0,-0.621634 0.71521,-1.3125 1.34375,-1.3125 z" color="#000" display="inline" enable-background="accumulate" overflow="visible" visibility="visible" style="marker:none"/></g></svg>