<svg xmlns="http://www.w3.org/2000/svg" xmlns:svg="http://www.w3.org/2000/svg" xmlns:xlink="http://www.w3.org/1999/xlink" id="svg2985" width="48" height="48" version="1.1"><defs id="defs2987"><linearGradient id="linearGradient4195"><stop id="stop4197" offset="0" stop-color="#ff7400" stop-opacity="1"/><stop id="stop3847" offset="1" stop-color="#7f3a00" stop-opacity="1"/></linearGradient><filter id="filter11507" color-interpolation-filters="sRGB"><feGaussianBlur id="feGaussianBlur11509" stdDeviation="1.056"/></filter><linearGradient id="linearGradient10954"><stop id="stop10956" offset="0" stop-color="#909090" stop-opacity="1"/><stop id="stop10958" offset="1" stop-color="#cecece" stop-opacity="1"/></linearGradient><linearGradient id="linearGradient10938"><stop id="stop10940" offset="0" stop-color="#dadada" stop-opacity="1"/><stop id="stop10942" offset="1" stop-color="#f6f6f5" stop-opacity="1"/></linearGradient><linearGradient id="linearGradient11438"><stop id="stop11440" offset="0" stop-color="#babdb6" stop-opacity="1"/><stop id="stop11442" offset="1" stop-color="#4a4d46" stop-opacity="1"/></linearGradient><linearGradient id="linearGradient10966"><stop id="stop10968" offset="0" stop-color="#fff" stop-opacity="1"/><stop id="stop10970" offset="1" stop-color="#f0f0f0" stop-opacity="1"/></linearGradient><linearGradient id="linearGradient11473"><stop id="stop11475" offset="0" stop-color="#a026c4" stop-opacity="1"/><stop id="stop8072" offset="1" stop-color="#501362" stop-opacity="1"/></linearGradient><linearGradient id="linearGradient4788"><stop id="stop4790" offset="0" stop-color="#fff" stop-opacity="1"/><stop id="stop4792" offset="1" stop-color="#fff" stop-opacity="0"/></linearGradient><radialGradient id="radialGradient12777" cx="144.167" cy="129.174" r="97.906" fx="144.167" fy="129.174" gradientTransform="matrix(1.1657896,-0.05054328,0.0329754,0.74679303,-28.160936,39.99441)" gradientUnits="userSpaceOnUse" xlink:href="#linearGradient12771"/><linearGradient id="linearGradient12771"><stop id="stop12773" offset="0" stop-color="#fff" stop-opacity="1"/><stop id="stop12775" offset="1" stop-color="#fff" stop-opacity="0"/></linearGradient><radialGradient id="radialGradient3521" cx="144.167" cy="129.174" r="97.906" fx="144.167" fy="129.174" gradientTransform="matrix(1.1657896,-0.05054328,0.0329754,0.74679303,-28.160936,39.99441)" gradientUnits="userSpaceOnUse" xlink:href="#linearGradient12771"/><radialGradient id="radialGradient3529" cx="144.167" cy="129.174" r="97.906" fx="144.167" fy="129.174" gradientTransform="matrix(1.1657896,-0.05054328,0.0329754,0.74679303,-28.160936,39.99441)" gradientUnits="userSpaceOnUse" xlink:href="#linearGradient12771"/><radialGradient id="radialGradient3537" cx="144.167" cy="129.174" r="97.906" fx="144.167" fy="129.174" gradientTransform="matrix(1.1657896,-0.05054328,0.0329754,0.74679303,-28.160936,39.99441)" gradientUnits="userSpaceOnUse" xlink:href="#linearGradient12771"/><radialGradient id="radialGradient3545" cx="144.167" cy="129.174" r="97.906" fx="144.167" fy="129.174" gradientTransform="matrix(1.1657896,-0.05054328,0.0329754,0.74679303,-28.160936,39.99441)" gradientUnits="userSpaceOnUse" xlink:href="#linearGradient12771"/><radialGradient id="radialGradient3553" cx="144.167" cy="129.174" r="97.906" fx="144.167" fy="129.174" gradientTransform="matrix(1.1657896,-0.05054328,0.0329754,0.74679303,-28.160936,39.99441)" gradientUnits="userSpaceOnUse" xlink:href="#linearGradient12771"/><radialGradient id="radialGradient3561" cx="144.167" cy="129.174" r="97.906" fx="144.167" fy="129.174" gradientTransform="matrix(1.1657896,-0.05054328,0.0329754,0.74679303,-28.160936,39.99441)" gradientUnits="userSpaceOnUse" xlink:href="#linearGradient12771"/><radialGradient id="radialGradient3569" cx="144.167" cy="129.174" r="97.906" fx="144.167" fy="129.174" gradientTransform="matrix(1.1657896,-0.05054328,0.0329754,0.74679303,-28.160936,39.99441)" gradientUnits="userSpaceOnUse" xlink:href="#linearGradient12771"/><radialGradient id="radialGradient3577" cx="144.167" cy="129.174" r="97.906" fx="144.167" fy="129.174" gradientTransform="matrix(1.1657896,-0.05054328,0.0329754,0.74679303,-28.160936,39.99441)" gradientUnits="userSpaceOnUse" xlink:href="#linearGradient12771"/><radialGradient id="radialGradient3585" cx="144.167" cy="129.174" r="97.906" fx="144.167" fy="129.174" gradientTransform="matrix(1.1657896,-0.05054328,0.0329754,0.74679303,-28.160936,39.99441)" gradientUnits="userSpaceOnUse" xlink:href="#linearGradient12771"/><radialGradient id="radialGradient3593" cx="144.167" cy="129.174" r="97.906" fx="144.167" fy="129.174" gradientTransform="matrix(1.1657896,-0.05054328,0.0329754,0.74679303,-28.160936,39.99441)" gradientUnits="userSpaceOnUse" xlink:href="#linearGradient12771"/><radialGradient id="radialGradient3601" cx="144.167" cy="129.174" r="97.906" fx="144.167" fy="129.174" gradientTransform="matrix(1.1657896,-0.05054328,0.0329754,0.74679303,-28.160936,39.99441)" gradientUnits="userSpaceOnUse" xlink:href="#linearGradient12771"/><radialGradient id="radialGradient3665" cx="144.167" cy="129.174" r="97.906" fx="144.167" fy="129.174" gradientTransform="matrix(1.1657896,-0.05054328,0.0329754,0.74679303,-28.160936,39.99441)" gradientUnits="userSpaceOnUse" xlink:href="#linearGradient12771"/><radialGradient id="radialGradient3348" cx="149.565" cy="258.761" r="116.231" fx="149.565" fy="258.761" gradientTransform="matrix(0.17091321,2.3948575e-4,-1.885288e-4,0.1345469,-0.82414948,18.425831)" gradientUnits="userSpaceOnUse" xlink:href="#linearGradient10966"/><linearGradient id="linearGradient3355" x1="134.833" x2="171.903" y1="68.529" y2="206.876" gradientTransform="matrix(0.17601918,0,0,0.17980627,-1.587065,12.337364)" gradientUnits="userSpaceOnUse" xlink:href="#linearGradient10938"/><linearGradient id="linearGradient3357" x1="184.951" x2="185.071" y1="149.21" y2="236.397" gradientTransform="matrix(0.17980539,0,0,0.17980539,-0.63860179,10.853331)" gradientUnits="userSpaceOnUse" xlink:href="#linearGradient11438"/><radialGradient id="radialGradient3387" cx="144.167" cy="129.174" r="97.906" fx="144.167" fy="129.174" gradientTransform="matrix(1.1657896,-0.05054328,0.0329754,0.74679303,-28.160936,39.99441)" gradientUnits="userSpaceOnUse" xlink:href="#linearGradient12771"/><radialGradient id="radialGradient3404" cx="326.021" cy="58" r="12.5" fx="326.021" fy="58" gradientTransform="matrix(-1.8243761,0.00876531,-0.00620867,-1.3078007,609.52907,98.067298)" gradientUnits="userSpaceOnUse" xlink:href="#linearGradient4788"/><radialGradient id="radialGradient3407" cx="326.021" cy="58" r="12.5" fx="326.021" fy="58" gradientTransform="matrix(-1.8882016,0.00857771,-0.00642588,-1.2798107,636.86026,96.523354)" gradientUnits="userSpaceOnUse" xlink:href="#linearGradient4788"/><radialGradient id="radialGradient4193" cx="186.191" cy="190.519" r="108.515" fx="186.191" fy="190.519" gradientTransform="matrix(0.1662361,-0.15672484,0.13833129,0.16762747,-34.187018,40.13141)" gradientUnits="userSpaceOnUse" xlink:href="#linearGradient4195"/><linearGradient id="linearGradient3985" x1="141.315" x2="141.315" y1="237.286" y2="57.029" gradientTransform="matrix(0.16968376,2.3939518e-4,-2.3776336e-4,0.17084857,-42.669494,11.742289)" gradientUnits="userSpaceOnUse" xlink:href="#linearGradient10954"/><radialGradient id="radialGradient3987" cx="149.565" cy="190.137" r="108.515" fx="149.565" fy="190.137" gradientTransform="matrix(0.27858123,3.9175803e-4,-2.5360296e-4,0.18163781,-58.952014,-9.8106194)" gradientUnits="userSpaceOnUse" xlink:href="#linearGradient11473"/><radialGradient id="radialGradient3989" cx="149.565" cy="190.137" r="108.515" fx="149.565" fy="190.137" gradientTransform="matrix(0.27084087,0,0,0.17776648,-57.785549,7.1131996)" gradientUnits="userSpaceOnUse" xlink:href="#linearGradient11473"/><radialGradient id="radialGradient3992" cx="149.565" cy="190.137" r="108.515" fx="149.565" fy="190.137" gradientTransform="matrix(0.27084087,0,0,0.17776648,-57.785549,7.1131996)" gradientUnits="userSpaceOnUse" xlink:href="#linearGradient11473"/><radialGradient id="radialGradient3995" cx="149.565" cy="190.137" r="108.515" fx="149.565" fy="190.137" gradientTransform="matrix(0.27858123,3.9175803e-4,-2.5360296e-4,0.18163781,-58.952014,6.1893806)" gradientUnits="userSpaceOnUse" xlink:href="#linearGradient11473"/><linearGradient id="linearGradient3998" x1="141.315" x2="141.315" y1="237.286" y2="57.029" gradientTransform="matrix(0.16968376,2.3939518e-4,-2.3776336e-4,0.17084857,-42.669494,11.742289)" gradientUnits="userSpaceOnUse" xlink:href="#linearGradient10954"/><linearGradient id="linearGradient4007" x1="141.315" x2="141.315" y1="237.286" y2="57.029" gradientTransform="matrix(0.16968376,2.3939518e-4,-2.3776336e-4,0.17084857,-42.669494,11.742289)" gradientUnits="userSpaceOnUse" xlink:href="#linearGradient10954"/><radialGradient id="radialGradient4009" cx="149.565" cy="190.137" r="108.515" fx="149.565" fy="190.137" gradientTransform="matrix(0.27858123,3.9175803e-4,-2.5360296e-4,0.18163781,-58.952014,6.1893806)" gradientUnits="userSpaceOnUse" xlink:href="#linearGradient11473"/><radialGradient id="radialGradient4011" cx="149.565" cy="190.137" r="108.515" fx="149.565" fy="190.137" gradientTransform="matrix(0.27084087,0,0,0.17776648,-57.785549,7.1131996)" gradientUnits="userSpaceOnUse" xlink:href="#linearGradient11473"/><radialGradient id="radialGradient4014" cx="149.565" cy="190.137" r="108.515" fx="149.565" fy="190.137" gradientTransform="matrix(0.27084087,0,0,0.17776648,-16.458295,8.8402271)" gradientUnits="userSpaceOnUse" xlink:href="#linearGradient11473"/><linearGradient id="linearGradient4020" x1="141.315" x2="141.315" y1="237.286" y2="57.029" gradientTransform="matrix(0.16968376,2.3939518e-4,-2.3776336e-4,0.17084857,-1.344677,13.527818)" gradientUnits="userSpaceOnUse" xlink:href="#linearGradient10954"/><filter id="filter8082" width="2.44" height="1.063" x="-.72" y="-.031"><feGaussianBlur id="feGaussianBlur8084" stdDeviation=".3"/></filter><filter id="filter3920" color-interpolation-filters="sRGB"><feGaussianBlur id="feGaussianBlur3922" stdDeviation=".237"/></filter><filter id="filter4015" width="1.72" height="1.72" x="-.36" y="-.36" color-interpolation-filters="sRGB"><feGaussianBlur id="feGaussianBlur4017" stdDeviation=".75"/></filter><filter id="filter4025" width="1.72" height="1.72" x="-.36" y="-.36" color-interpolation-filters="sRGB"><feGaussianBlur id="feGaussianBlur4027" stdDeviation=".75"/></filter><filter id="filter4035" width="1.72" height="1.72" x="-.36" y="-.36" color-interpolation-filters="sRGB"><feGaussianBlur id="feGaussianBlur4037" stdDeviation=".75"/></filter><filter id="filter11490-5-0-4" width="1.214" height="3.703" x="-.107" y="-1.352" color-interpolation-filters="sRGB"><feGaussianBlur id="feGaussianBlur11492-5-8-4" stdDeviation="1.83"/></filter><filter id="filter11472-2-8-5" width="1.104" height="2.311" x="-.052" y="-.655" color-interpolation-filters="sRGB"><feGaussianBlur id="feGaussianBlur11474-3-4-5" stdDeviation=".887"/></filter></defs><metadata id="metadata2990"/><g id="layer1" transform="translate(0,-16)"><g id="g3990"><rect id="rect11476" width="41.125" height="3.25" x="3.438" y="51.606" fill="#000" fill-opacity="1" fill-rule="nonzero" stroke="none" stroke-width="1" color="#000" display="inline" enable-background="accumulate" filter="url(#filter11490-5-0-4)" overflow="visible" rx="1.763" ry="1.625" transform="matrix(0.9216359,0,0,1,2.4807384,-0.24883795)" visibility="visible" style="marker:none"/><rect id="rect11446" width="41.125" height="3.25" x="4.437" y="51.731" fill="#000" fill-opacity="1" fill-rule="nonzero" stroke="none" stroke-width="1" color="#000" display="inline" enable-background="accumulate" filter="url(#filter11472-2-8-5)" overflow="visible" rx="1.756" ry="1.525" transform="matrix(0.92541589,0,0,1.0652463,1.4646861,-3.8551008)" visibility="visible" style="marker:none"/></g><rect id="rect10522" width="235.5" height="187" x="31.815" y="49.529" fill="#000" fill-opacity="1" fill-rule="nonzero" stroke="none" stroke-width="2" color="#000" display="inline" enable-background="accumulate" filter="url(#filter11507)" opacity=".556" overflow="visible" rx="10.54" ry="10.788" transform="matrix(0.17026392,2.3308569e-4,-2.3857596e-4,0.16634569,-1.4313965,13.672808)" visibility="visible" style="marker:none"/><rect id="rect10538" width="34.971" height="22.953" x="6.565" y="24.489" fill="url(#radialGradient4014)" fill-opacity="1" fill-rule="nonzero" stroke="none" stroke-width="2" color="#000" display="inline" enable-background="accumulate" overflow="visible" rx=".872" ry=".877" transform="matrix(0.999999,0.00141561,-0.00138697,0.99999904,0,0)" visibility="visible" style="marker:none"/><g id="g4206" transform="translate(-5,6)"><path id="rect3818" fill="#8100ff" fill-opacity="0" stroke="none" stroke-width="2" d="m 11.9375,27.5 c -1,0 -1,1 -1,1 l 0,6 c 0,1 1,1 1,1 l 9,0 c 1,0 1,-1 1,-1 l 0,-6 c 0,0 0,-1 -1,-1 z m 0,2 9,0 0,5 -9,0 z" baseline-shift="baseline" color="#000" direction="ltr" display="inline" enable-background="accumulate" font-family="Sans" font-size="medium" font-stretch="normal" font-style="normal" font-variant="normal" font-weight="normal" letter-spacing="normal" overflow="visible" text-anchor="start" text-decoration="none" visibility="visible" word-spacing="normal" writing-mode="lr-tb" style="text-indent:0;text-align:start;line-height:normal;text-transform:none;block-progression:tb;marker:none;-inkscape-font-specification:Sans"/><path id="rect3822" fill="#fff" fill-opacity="1" fill-rule="nonzero" stroke="none" stroke-width="2" d="m 13,27 c -1.090703,0 -2,0.909297 -2,2 l 0,4 c 0,1.090703 0.909297,2 2,2 l 7,0 c 1.090703,0 2,-0.909297 2,-2 l 0,-4 c 0,-1.090703 -0.909297,-2 -2,-2 z" baseline-shift="baseline" color="#000" direction="ltr" display="inline" enable-background="accumulate" font-family="Sans" font-size="medium" font-stretch="normal" font-style="normal" font-variant="normal" font-weight="normal" letter-spacing="normal" opacity=".5" overflow="visible" text-anchor="start" text-decoration="none" visibility="visible" word-spacing="normal" writing-mode="lr-tb" style="text-indent:0;text-align:start;line-height:normal;text-transform:none;block-progression:tb;marker:none;-inkscape-font-specification:Sans"/><path font-size="medium" style="text-indent:0;text-align:start;line-height:normal;text-transform:none;block-progression:tb;marker:none;-inkscape-font-specification:Sans" id="path3918" fill="#333" fill-opacity="1" stroke="none" stroke-width="2" d="m 12,27 c -1,0 -1,1 -1,1 l 0,6 c 0,1 1,1 1,1 l 9,0 c 1,0 1,-1 1,-1 l 0,-6 c 0,0 0,-1 -1,-1 z m 0,2 9,0 0,5 -9,0 z" baseline-shift="baseline" color="#000" direction="ltr" display="inline" enable-background="accumulate" filter="url(#filter3920)" font-family="Sans" font-stretch="normal" font-style="normal" font-variant="normal" font-weight="normal" letter-spacing="normal" overflow="visible" text-anchor="start" text-decoration="none" visibility="visible" word-spacing="normal" writing-mode="lr-tb"/><path id="rect3818-4" fill="#333" fill-opacity="1" stroke="none" stroke-width="2" d="m 12,27 c -1,0 -1,1 -1,1 l 0,6 c 0,1 1,1 1,1 l 9,0 c 1,0 1,-1 1,-1 l 0,-6 c 0,0 0,-1 -1,-1 z m 0,3 9,0 0,4 -9,0 z" baseline-shift="baseline" color="#000" direction="ltr" display="inline" enable-background="accumulate" font-family="Sans" font-size="medium" font-stretch="normal" font-style="normal" font-variant="normal" font-weight="normal" letter-spacing="normal" overflow="visible" text-anchor="start" text-decoration="none" visibility="visible" word-spacing="normal" writing-mode="lr-tb" style="text-indent:0;text-align:start;line-height:normal;text-transform:none;block-progression:tb;marker:none;-inkscape-font-specification:Sans"/><g id="g4039" transform="translate(-1,-0.99999999)"><path id="path3979" fill="#dd4814" fill-opacity="1" stroke="none" d="M 60,20.5 C 60,21.880712 58.880712,23 57.5,23 56.119288,23 55,21.880712 55,20.5 55,19.119288 56.119288,18 57.5,18 c 1.380712,0 2.5,1.119288 2.5,2.5 z" transform="matrix(0.2,0,0,0.2,2,25.4)"/><path id="path4005" fill="#777" fill-opacity="1" stroke="none" d="M 60,20.5 C 60,21.880712 58.880712,23 57.5,23 56.119288,23 55,21.880712 55,20.5 55,19.119288 56.119288,18 57.5,18 c 1.380712,0 2.5,1.119288 2.5,2.5 z" transform="matrix(0.2,0,0,0.2,3,25.4)"/><path id="path4007" fill="#777" fill-opacity="1" stroke="none" d="M 60,20.5 C 60,21.880712 58.880712,23 57.5,23 56.119288,23 55,21.880712 55,20.5 55,19.119288 56.119288,18 57.5,18 c 1.380712,0 2.5,1.119288 2.5,2.5 z" transform="matrix(0.2,0,0,0.2,4,25.4)"/><path id="path4009" fill="#777" fill-opacity="1" stroke="none" d="M 60,20.5 C 60,21.880712 58.880712,23 57.5,23 56.119288,23 55,21.880712 55,20.5 55,19.119288 56.119288,18 57.5,18 c 1.380712,0 2.5,1.119288 2.5,2.5 z" filter="url(#filter4015)" transform="matrix(0.2,0,0,0.2,3,25.4)"/><path id="path4019" fill="#777" fill-opacity="1" stroke="none" d="M 60,20.5 C 60,21.880712 58.880712,23 57.5,23 56.119288,23 55,21.880712 55,20.5 55,19.119288 56.119288,18 57.5,18 c 1.380712,0 2.5,1.119288 2.5,2.5 z" filter="url(#filter4025)" transform="matrix(0.2,0,0,0.2,4,25.4)"/><path id="path4029" fill="#dd4814" fill-opacity="1" stroke="none" d="M 60,20.5 C 60,21.880712 58.880712,23 57.5,23 56.119288,23 55,21.880712 55,20.5 55,19.119288 56.119288,18 57.5,18 c 1.380712,0 2.5,1.119288 2.5,2.5 z" filter="url(#filter4035)" transform="matrix(0.2,0,0,0.2,2,25.4)"/></g></g><rect id="rect4191" width="17.984" height="24.946" x="6.031" y="22.982" fill="url(#radialGradient4193)" fill-opacity="1" fill-rule="nonzero" stroke="none" stroke-width="2" color="#000" display="inline" enable-background="accumulate" opacity=".7" overflow="visible" rx="0" ry="0" transform="matrix(0.99999552,0.00299182,-6.5625802e-4,0.99999978,0,0)" visibility="visible" style="marker:none"/><rect id="rect4201" width="1" height="23" x="23" y="24.5" fill="#ff7400" fill-opacity="1" stroke="none" rx=".872" ry="0"/><rect id="rect8076" width="1" height="23" x="23" y="24.5" fill="#ff7400" fill-opacity="1" stroke="none" filter="url(#filter8082)" rx=".872" ry="0"/><path id="rect10524" fill="url(#linearGradient4020)" fill-opacity="1" fill-rule="nonzero" stroke="none" stroke-width="2" d="m 5.84375,21.999998 c -0.994202,-0.0014 -1.811116,0.787048 -1.8125,1.78125 L 4,52.156248 c -0.0014,0.994202 0.787048,1.779847 1.78125,1.78125 l 36.375,0.0625 c 0.994202,0.0014 1.811116,-0.787048 1.8125,-1.78125 L 44,23.843748 c 0.0014,-0.994202 -0.787048,-1.779847 -1.78125,-1.78125 l -36.375,-0.0625 z m 1.5625,2.5 33.21875,0.0625 c 0.483082,6.84e-4 0.875674,0.389018 0.875,0.875 l -0.03125,21.1875 c -6.74e-4,0.485982 -0.391918,0.875684 -0.875,0.875 L 7.375,47.437498 C 6.891918,47.436814 6.499326,47.04848 6.5,46.562498 l 0.03125,-21.1875 c 6.74e-4,-0.485982 0.391918,-0.875684 0.875,-0.875 z" color="#000" display="inline" enable-background="accumulate" overflow="visible" visibility="visible" style="marker:none"/><path id="rect10528" fill="#000" fill-opacity="1" fill-rule="nonzero" stroke="none" stroke-width="2" d="m 7.262317,24.004279 c -0.675892,-9.51e-4 -1.217973,0.443676 -1.21875,1 l -0.03125,21.4375 c -7.77e-4,0.556323 0.542858,0.99905 1.21875,1 l 0.125,0 c -0.483082,-6.84e-4 -0.844424,-0.389018 -0.84375,-0.875 l 0.03125,-21.1875 c 6.74e-4,-0.485982 0.360668,-0.875684 0.84375,-0.875 l 33.25,0.03125 c 0.483082,6.84e-4 0.875674,0.389018 0.875,0.875 l -0.03125,21.21875 c -6.74e-4,0.485982 -0.391918,0.875684 -0.875,0.875 l 0.15625,0 c 0.675892,9.5e-4 1.217973,-0.443677 1.21875,-1 l 0.03125,-21.4375 c 7.77e-4,-0.556324 -0.542858,-1.030299 -1.21875,-1.03125 l -33.53125,-0.03125 z" color="#000" display="inline" enable-background="accumulate" opacity=".4" overflow="visible" visibility="visible" style="marker:none"/><path id="path10590" fill="url(#radialGradient3407)" fill-opacity="1" stroke="none" d="M 30.115007,25.07117 40.895026,25 41,45.90916 21,46 z" display="inline" enable-background="new" opacity=".3"/><path id="path10592" fill="url(#radialGradient3404)" fill-opacity="1" stroke="none" d="m 20.779029,25.016466 6,0 -4.486155,15.605426 -2.960354,-0.160917 z" display="inline" enable-background="new" opacity=".3"/><rect id="rect4189" width="16.705" height="23.776" x="6.718" y="7.253" fill="none" fill-opacity="1" stroke="none" rx=".872" ry=".877" transform="translate(0,16)"/></g></svg>