<svg xmlns="http://www.w3.org/2000/svg" xmlns:svg="http://www.w3.org/2000/svg" id="svg2985" width="24" height="24" version="1.1"><metadata id="metadata2990"/><g id="layer1" transform="translate(0,-40)"><path id="path3944" fill="#777" fill-opacity="1" stroke="none" d="m 10.03125,42 -3.7187501,1.53125 0.875,2.09375 c -0.59865,0.451069 -1.121966,0.978602 -1.5625,1.5625 l -2.09375,-0.875 -1.53125,3.71875 2.0625,0.875 c -0.09888,0.717326 -0.07149,1.452749 0.03125,2.1875 l -2.09375,0.875 1.53125,3.71875 2.09375,-0.875 c 0.451069,0.59865 0.978602,1.121966 1.5625,1.5625 l -0.875,2.09375 L 10.03125,62 l 0.875,-2.0625 c 0.717326,0.09888 1.452749,0.07149 2.1875,-0.03125 L 13.96875,62 17.6875,60.46875 16.8125,58.375 c 0.59865,-0.451069 1.121966,-0.978602 1.5625,-1.5625 l 2.09375,0.875 L 22,53.96875 l -2.0625,-0.875 c 0.09888,-0.717326 0.07149,-1.452749 -0.03125,-2.1875 L 22,50.03125 20.46875,46.3125 18.375,47.1875 C 17.923931,46.58885 17.396398,46.065534 16.8125,45.625 L 17.6875,43.53125 13.96875,42 l -0.875,2.0625 c -0.717326,-0.09888 -1.452749,-0.07149 -2.1875,0.03125 L 10.03125,42 z M 12,47 c 2.761424,0 5,2.238576 5,5 0,2.761424 -2.238576,5 -5,5 -2.7614241,0 -5.0000001,-2.238576 -5.0000001,-5 0,-2.761424 2.238576,-5 5.0000001,-5 z"/></g></svg>