<svg xmlns="http://www.w3.org/2000/svg" xmlns:svg="http://www.w3.org/2000/svg" xmlns:xlink="http://www.w3.org/1999/xlink" id="svg20305" width="24" height="24" version="1.1"><metadata id="metadata3034"/><defs id="defs20307"><linearGradient id="linearGradient3532"><stop id="stop3533" offset="0" stop-color="#000" stop-opacity=".487"/><stop id="stop3534" offset=".5" stop-color="#000" stop-opacity=".079"/><stop id="stop3535" offset="1" stop-color="#000" stop-opacity="0"/></linearGradient><linearGradient id="linearGradient21044"><stop id="stop21045" offset="0" stop-color="#fff" stop-opacity="0"/><stop id="stop21046" offset="1" stop-color="#fff" stop-opacity="1"/></linearGradient><linearGradient id="linearGradient21036"><stop id="stop21037" offset="0" stop-color="#fff" stop-opacity="0"/><stop id="stop21038" offset="1" stop-color="#fff" stop-opacity="1"/></linearGradient><linearGradient id="linearGradient21012"><stop id="stop21013" offset="0" stop-color="#000" stop-opacity="1"/><stop id="stop21014" offset="1" stop-color="#000" stop-opacity="0"/></linearGradient><linearGradient id="linearGradient20962"><stop id="stop20963" offset="0" stop-color="#fff" stop-opacity="0"/><stop id="stop20964" offset="1" stop-color="#fff" stop-opacity="1"/></linearGradient><radialGradient id="radialGradient1502" cx=".5" cy=".5" r=".5" fx=".18" fy=".479" xlink:href="#linearGradient1918"/><linearGradient id="linearGradient1918"><stop id="stop1919" offset="0" stop-color="#000" stop-opacity=".316"/><stop id="stop1920" offset=".5" stop-color="#000" stop-opacity=".079"/><stop id="stop1921" offset="1" stop-color="#000" stop-opacity="0"/></linearGradient><radialGradient id="radialGradient2541" cx=".5" cy=".5" r=".5" fx=".18" fy=".479" xlink:href="#linearGradient3532"/><linearGradient id="linearGradient2121" x1=".416" x2=".596" y1=".277" y2=".443" xlink:href="#linearGradient1513"/><linearGradient id="linearGradient1513"><stop id="stop1514" offset="0" stop-color="#fff" stop-opacity="1"/><stop id="stop1515" offset="1" stop-color="#fff" stop-opacity="0"/></linearGradient><linearGradient id="linearGradient2316" x1=".475" x2=".804" y1=".218" y2=".52" xlink:href="#linearGradient2317"/><linearGradient id="linearGradient2317"><stop id="stop2318" offset="0" stop-color="#d6d6d6" stop-opacity="1"/><stop id="stop2322" offset=".258" stop-color="#eaeaea" stop-opacity="1"/><stop id="stop2320" offset=".706" stop-color="#919191" stop-opacity="1"/><stop id="stop2321" offset=".733" stop-color="#d2d2d2" stop-opacity="1"/><stop id="stop2319" offset="1" stop-color="#a6a6a6" stop-opacity="1"/></linearGradient><linearGradient id="linearGradient2315" x1=".278" x2=".451" y1="-.064" y2=".611" xlink:href="#linearGradient1513"/><linearGradient id="linearGradient1512" x1=".995" x2=".327" y1=".644" y2=".3" xlink:href="#linearGradient1918"/><linearGradient id="linearGradient2224" x1="-.142" x2=".498" y1="-.288" y2=".356" xlink:href="#linearGradient1513"/><linearGradient id="linearGradient2138" x1="1.378" x2=".584" y1=".254" y2=".13" xlink:href="#linearGradient2122"/><linearGradient id="linearGradient2122"><stop id="stop2123" offset="0" stop-color="#000" stop-opacity=".408"/><stop id="stop2124" offset="1" stop-color="#000" stop-opacity="0"/></linearGradient><linearGradient id="linearGradient2223" x1="-.182" x2=".685" y1="-.44" y2=".424" xlink:href="#linearGradient1513"/><linearGradient id="linearGradient1516" x1=".459" x2=".69" y1="1.277" y2="-.297" xlink:href="#linearGradient2122"/><linearGradient id="linearGradient2314" x1="-.451" x2=".471" y1="-.151" y2=".366" xlink:href="#linearGradient1513"/><linearGradient id="linearGradient2313" x1="-.008" x2=".596" y1="-1.245" y2=".361" xlink:href="#linearGradient1513"/><linearGradient id="linearGradient2312" x1=".459" x2=".655" y1="-.587" y2=".451" xlink:href="#linearGradient1513"/><linearGradient id="linearGradient2222" x1="-.106" x2=".584" y1="-.105" y2=".552" xlink:href="#linearGradient1513"/></defs><g id="g3030" fill="#333" fill-opacity="1" transform="matrix(0.6671619,0,0,0.6671619,-0.06110207,7.9896017)"><path id="path20328" fill="#333" fill-opacity="1" fill-rule="evenodd" stroke="none" d="M 13.9375,2 C 13.317883,2.1577697 12.683646,2.4676409 12.25,2.9375 11.016055,4.274489 11.682402,6.0663447 10.384803,7.4201141 10.105528,7.7418916 10.095336,7.6689728 9.774318,7.9460024 c 1.490525,1.3547516 3.981159,3.6466446 5.65219,5.3763006 -0.03027,-0.426351 0.401136,-0.847969 0.802696,-0.93815 0.646277,-0.145138 1.522294,0.217534 1.81342,0.8125 0.230689,0.471453 -0.05667,1.111169 -0.37343,1.529679 -0.148654,0.196408 -0.563672,0.364322 -0.643306,0.363627 0.861074,0.925591 0.736666,0.710709 1.442862,1.503791 1.619018,-1.981327 2.010355,-3.828796 2.09375,-6.125 C 20.629841,8.6145935 20.014357,6.6785479 19,5.125 18.274969,4.0145717 17.096925,3.237532 15.9375,2.59375 15.407974,2.2997254 14.816819,2.0957174 14.21875,2 14.122678,1.9846246 14.031786,1.9759922 13.9375,2 z M 14.5,4 C 15.328427,4 16,4.6715729 16,5.5 16,6.3284271 15.328427,7 14.5,7 13.671573,7 13,6.3284271 13,5.5 13,4.6715729 13.671573,4 14.5,4 z m 3,4 C 18.328427,8 19,8.6715729 19,9.5 19,10.328427 18.328427,11 17.5,11 16.671573,11 16,10.328427 16,9.5 16,8.6715729 16.671573,8 17.5,8 z M 6.46875,10.78125 c -1.0592616,0.776666 -1.9643177,1.581511 -2.5,2.9375 -0.4433779,1.122336 -0.6217447,2.539899 -0.09375,3.625 0.7888833,1.621262 2.6221409,2.714378 4.34375,3.25 2.045101,0.636265 4.397586,0.49333 6.40625,-0.25 0.482464,-0.178542 0.835775,-0.281219 1.03125,-0.625 -0.550539,-0.460502 -1.637101,-1.494766 -2.234375,-2.023437 0.07554,0.476771 -0.771371,0.878129 -1.277229,0.831456 -0.652697,-0.06022 -1.322764,-0.708608 -1.423866,-1.356234 -0.07344,-0.470443 0.323191,-0.973073 0.68482,-1.253562 C 9.5586935,14.156983 7.8905661,12.333937 6.46875,10.78125 z M 7.5,15 C 8.3284271,15 9,15.671573 9,16.5 9,17.328427 8.3284271,18 7.5,18 6.6715729,18 6,17.328427 6,16.5 6,15.671573 6.6715729,15 7.5,15 z" transform="matrix(1.4988866,0,0,1.4988866,0.09158507,-11.975507)"/><path id="path3967" fill="#333" fill-opacity="1" fill-rule="evenodd" stroke="none" d="M 6.0688404,-1.68026 C 5.5823808,-2.0660606 5.1802925,-2.6092719 4.9941726,-3.2015932 4.6135397,-4.4129465 4.8163454,-5.7570389 5.0174208,-7.0107641 c 0.092919,-0.5793598 0.2459183,-1.1949283 0.5402651,-1.6753327 0.1065856,-0.1739587 0.2782233,-0.2308198 0.455877,-0.1214184 0.1776537,0.1094014 0.1228836,0.5954394 0.1599907,0.763471 0.231668,1.5684176 1.1888626,2.1828657 1.9668648,2.8379679 0.4955153,0.464757 0.7347086,0.8998355 0.8996901,1.4417607 0.09661,0.3173424 0.1163309,0.6735404 0.032981,0.9946209 C 8.9493709,-2.2931025 8.7208215,-1.86545 8.3122111,-1.503566 7.9930425,-1.204579 7.3893506,-1.220918 7.0743176,-1.272556 6.7592829,-1.324197 6.3522066,-1.455528 6.0688404,-1.68026 z"/><path id="path3969" fill="#333" fill-opacity="1" fill-rule="evenodd" stroke="none" d="M 31.348462,20.97803 C 31.791051,20.488285 26.942163,14.448472 21.19624,8.495331 15.450318,2.542195 8.5862867,-2.6149259 8.5862867,-2.6149259 c -0.6434744,0.6039143 -1.1987168,-0.03447 -0.9701755,1.0291019 0,0 5.2894418,6.924378 11.3111688,12.657185 6.021724,5.732803 12.079457,10.284799 12.421182,9.906669 z"/></g></svg>