<svg xmlns="http://www.w3.org/2000/svg" xmlns:svg="http://www.w3.org/2000/svg" id="svg2985" width="24" height="24" version="1.1"><metadata id="metadata2990"/><g id="layer1" transform="translate(0,-40)"><path id="rect2984" fill="#333" fill-opacity="1" stroke="none" stroke-width="2" d="M 6,6 C 4,6 4,8 4,8 l 0,9 0,2 16,0 0,-2 0,-9 C 20,6 18,6 18,6 z m 0.5,4 11,0 c 0,0 0.5,0 0.5,0.5 l 0,6 c 0,0 0,0.5 -0.5,0.5 l -11,0 C 6,17 6,16.5 6,16.5 l 0,-6 C 6,10.5 6,10 6.5,10 z" baseline-shift="baseline" color="#000" direction="ltr" display="inline" enable-background="accumulate" font-family="Sans" font-size="medium" font-stretch="normal" font-style="normal" font-variant="normal" font-weight="normal" letter-spacing="normal" overflow="visible" text-anchor="start" text-decoration="none" transform="translate(0,40)" visibility="visible" word-spacing="normal" writing-mode="lr-tb" style="text-indent:0;text-align:start;line-height:normal;text-transform:none;block-progression:tb;marker:none;-inkscape-font-specification:Sans"/><path id="path3773" fill="#333" fill-opacity="1" stroke="none" stroke-linecap="butt" stroke-linejoin="miter" stroke-opacity="1" stroke-width="1" d="m 1,12 2,-2 0,4 z" transform="translate(0,40)"/><path id="path3775" fill="#333" fill-opacity="1" stroke="none" d="m 23,52 -2,-2 0,4 z"/><path id="path3777" fill="#333" fill-opacity="1" stroke="none" d="m 12,43 -2,2 4,0 z"/><path id="path3779" fill="#333" fill-opacity="1" stroke="none" d="m 12,62 -2,-2 4,0 z"/></g></svg>